<svg xmlns="http://www.w3.org/2000/svg" viewBox="0 0 512 512"><path fill="#bd3d44" d="M0 0h512v39H0z"/><path fill="#fff" d="M0 39h512v39H0z"/><path fill="#bd3d44" d="M0 78h512v39H0z"/><path fill="#fff" d="M0 117h512v39H0z"/><path fill="#bd3d44" d="M0 156h512v39H0z"/><path fill="#fff" d="M0 195h512v39H0z"/><path fill="#bd3d44" d="M0 234h512v39H0z"/><path fill="#fff" d="M0 273h512v39H0z"/><path fill="#bd3d44" d="M0 312h512v39H0z"/><path fill="#fff" d="M0 351h512v39H0z"/><path fill="#bd3d44" d="M0 390h512v39H0z"/><path fill="#fff" d="M0 429h512v39H0z"/><path fill="#bd3d44" d="M0 468h512v44H0z"/><path fill="#192f5d" d="M0 0h256v273H0z"/></svg>
