<?xml version="1.0" encoding="UTF-8"?>
<svg id="_图层_1" data-name="图层 1" xmlns="http://www.w3.org/2000/svg" viewBox="0 0 73.64001 73.66122">
  <defs>
    <style>
      .cls-1 {
        fill: #fff;
      }
    </style>
  </defs>
  <path class="cls-1" d="M12.40889,9.19624C32.02348-7.32175,61.13749-.85012,70.79656,22.69789c11.54054,28.1349-13.87868,57.3391-43.27094,49.74162C.14176,65.36118-9.19545,31.25932,10.48889,10.87624c.71101-.47819,1.35101-1.03819,1.92-1.68ZM9.57072,19.43808c-13.06827,20.68675.89749,48.09787,25.26811,49.52822,26.29229,1.54314,43.38413-27.64054,29.03192-49.79052C51.19588-.38555,22.02022-.26917,9.57072,19.43808Z"/>
  <g>
    <path class="cls-1" d="M49.27359,57.40515s0-.72866.69397-2.9147c.69401-2.18605,1.80436-2.56774,1.80436-2.56774,0,0-3.05352-1.66558-5.62126-2.32486s-5.13547-.6246-5.13547-.6246c-2.77596.65929-3.88631,4.40682-3.88631,4.40682,0,0,2.42892-.13882,5.55185.6246,3.12293.76338,6.59286,3.40049,6.59286,3.40049Z"/>
    <path class="cls-1" d="M42.81955,48.76506s5.37838.41641,7.8073,2.11668c0,0-1.52676-3.57403-2.01254-4.92728-.48578-1.3533-.65929-2.56778-2.25545-2.60246s-6.38463,0-6.38463,0c0,0-1.17979-.06941-.55519.7981.62456.86747,3.40052,4.61496,3.40052,4.61496Z"/>
    <path class="cls-1" d="M51.77192,44.58238l-1.45011,4.39056s.30504,1.0146.83275,2.04034c.37508.72901.71712.55519.71712.55519l4.07139-2.22073s1.1335-2.01254,1.68869-2.86848c.55519-.8559-.39326-.94842-.39326-.94842,0,0-4.51087-1.01787-4.97354-1.08727-.46267-.06937-.49303.13882-.49303.13882Z"/>
    <path class="cls-1" d="M60.06071,51.33717c-.43952-.55519-1.68869-1.89691-1.68869-1.89691,0,0-.3239-.41637-1.36487,0-1.04098.41641-4.41835,2.14636-4.41835,2.14636,0,0-.38846.23496-.13878.32886,0,0,1.00708.25445,1.61392,1.43424.60681,1.17975.74562,2.24388.74562,2.24388,0,0,.16193.11567.5783-.32386s2.91474-2.47522,4.11764-2.70655.99472-.67086.55519-1.22601Z"/>
    <path class="cls-1" d="M50.16563,55.60733c-.36433,1.42625-.37689,3.00364-.37689,3.00364,0,0-1.49109-1.48483-3.94895-2.65305-2.51407-1.19495-4.85209-1.85062-4.85209-1.85062l.05205.44531.11083,1.97022s.07756.48445.427.63799c.4511.19823,5.63862,1.63085,7.59911,3.01883,1.96054,1.38798,2.09931,1.17975,1.94317.36433s-.01547-5.26145.17929-7.01502c0,0-.64507.16626-1.13353,2.07837Z"/>
    <path class="cls-1" d="M56.2033,55.00946c-.69397.55519-1.80436,2.24388-1.94313,2.08195-.13882-.16193.34697-1.7118-.37015-2.77592-.71712-1.06409-1.60892-2.32266-1.78121-1.88424,0,0-.54507.29964-.67086,4.54453-.08776,2.96195-.06327,4.37209.92838,3.44678.99165-.92535,3.21242-2.88872,3.90639-3.01742.69397-.12866.43952-1.03082.46263-1.5629.02315-.53204.16193-1.38794-.53204-.83279Z"/>
    <path class="cls-1" d="M43.03467,41.04288c.87936.37732,1.41416,1.45448,1.41983,1.46519.04283.08819.13102.13921.22236.13921.03654,0,.0737-.00819.10835-.0252.12283-.05984.17386-.20787.11401-.33071-.02457-.05102-.61858-1.25259-1.66928-1.70329-.12661-.05354-.27086.00378-.32504.12976-.05417.12567.00441.27118.12976.32504Z"/>
    <path class="cls-1" d="M45.63811,38.16605c-.07811-.11338-.23181-.13984-.34456-.06268-.11213.07779-.14047.23212-.06236.34425.90802,1.31074,1.20582,2.75084,1.24948,2.98431-.25342.00244-.44909.00606-.53818.01161-.55519.03468-.31232.7287-.31232.7287l.43519.92964c.46267-.06941,1.82026.14602,2.23668,1.0135.41637.86747,1.28385,3.33112,1.42267,3.71281.13878.38169.69397.13882.69397.13882l1.14507-3.78221s-.10409-1.28389-.20819-2.01254c-.10409-.7287-.4511-.7287-.4511-.7287,0,0-.25378-.00197-.64094-.00449.00118-.01024.00583-.01929.00575-.02988-.01197-1.19779.20724-2.34486.45921-2.4066.13228-.03244.21354-.16661.18142-.29921-.03276-.13291-.16504-.21543-.29984-.18142-.80062.19653-.8422,2.26329-.8359,2.89226.00008.00776.00382.01429.00461.02189-.83854-.00484-1.97404-.00984-2.80423-.00724.00008-.01362.00382-.02657.00154-.04047-.01134-.06866-.28598-1.70329-1.33794-3.22234Z"/>
    <path class="cls-1" d="M52.13255,43.43593c-.04472.1285.02331.27023.15244.31496.02646.00945.05417.01386.08126.01386.10205,0,.19779-.06425.2337-.1663.0063-.0189.68031-1.90046,2.41573-2.55116.12787-.04819.19275-.19086.14488-.31874s-.1896-.19244-.31874-.14488c-1.95022.73133-2.67903,2.76596-2.70927,2.85226Z"/>
    <path class="cls-1" d="M45.17981,37.69598s-.18748-1.62959,1.01251-2.0055c0,0-1.43369.4185-1.92199-.99149,0,0,.32535,1.52479-1.13826,2.13061,0,0,1.22097-.45945,2.04774.86637Z"/>
    <polygon class="cls-1" points="50.24595 36.21796 49.8689 37.49094 51.0748 37.19224 51.66385 38.48416 52.04751 37.18885 53.34281 37.57251 52.67357 36.30544 53.88525 35.74123 52.61313 35.60733 52.58156 34.23762 51.72306 35.0036 50.67378 34.01262 50.78681 35.21214 49.65863 35.41237 50.24595 36.21796"/>
  </g>
</svg>