<?xml version="1.0" encoding="UTF-8"?>
<svg id="_图层_1" data-name=" 图层 1" xmlns="http://www.w3.org/2000/svg" xmlns:xlink="http://www.w3.org/1999/xlink" viewBox="0 0 57.23438 38.53632">
  <defs>
    <style>
      .cls-1 {
        fill: none;
      }

      .cls-2 {
        fill: #1d2027;
      }

      .cls-3 {
        stroke: #3a3a3a;
        stroke-miterlimit: 10;
        stroke-width: .29369px;
      }

      .cls-3, .cls-4 {
        fill: #fff;
      }

      .cls-5 {
        fill: #5aacee;
      }

      .cls-6 {
        fill: #d2effd;
      }

      .cls-7 {
        clip-path: url(#clippath);
      }

      .cls-8 {
        fill: #bad7ee;
      }
    </style>
    <clipPath id="clippath">
      <rect class="cls-1" x=".00145" y=".15328" width="57.2315" height="38.33831"/>
    </clipPath>
  </defs>
  <rect class="cls-2" x=".00145" y=".00003" width="57.2315" height="38.53629"/>
  <g class="cls-7">
    <g>
      <path class="cls-5" d="M11.33108,20.68372H2.31872c-.28733,0-.50033-.26673-.43677-.54694l3.20164-14.1136c.04628-.20399.22759-.34878.43677-.34878h9.01236c.28733,0,.50033.26673.43677.54694l-3.20164,14.1136c-.04628.20399-.22759.34878-.43677.34878Z"/>
      <path class="cls-5" d="M48.96735,10.31049c-.06354.28021.14948.54694.43677.54694h7.83026V.15326h-5.96289l-2.30414,10.15723Z"/>
      <path class="cls-5" d="M57.23438,11.49316h-8.46808c-.20917,0-.39044.14478-.43677.34882l-3.2016,14.11359c-.0636.28021.14941.54694.43677.54694h9.01233c.20917,0,.3905-.14478.43677-.34882l2.22058-9.78876v-4.87177Z"/>
      <path class="cls-5" d="M54.2655,27.13824h-9.01233c-.20923,0-.3905.14478-.43677.34882l-2.50653,11.04926h9.93085l2.46155-10.85114c.0636-.28021-.14941-.54694-.43677-.54694Z"/>
      <path class="cls-5" d="M6.74036,0l-1.01892,4.4917c-.0636.28021.14941.54694.43677.54694h9.01233c.20917,0,.3905-.14478.43677-.34875l1.0639-4.68988H6.74036Z"/>
      <path class="cls-5" d="M11.01953,21.31946H2.0072c-.20917,0-.3905.14484-.43677.34882l-1.57043,6.92279v7.73773h7.81793c.20917,0,.39044-.14478.43677-.34882l3.2016-14.11359c.0636-.28021-.14941-.54694-.43677-.54694Z"/>
      <path class="cls-5" d="M7.64728,36.96454H0v1.57178h7.85156l.23248-1.02484c.0636-.28021-.14941-.54694-.43677-.54694Z"/>
      <g>
        <circle class="cls-6" cx="12.8609" cy="25.07718" r="6.47657"/>
        <path class="cls-8" d="M7.92333,21.67727s-2.06817,2.83806-.25498,6.37191,6.37631,3.79092,8.78544,1.7655c0,0-8.63346,1.45718-8.53045-8.13742Z"/>
      </g>
    </g>
  </g>
  <g>
    <polygon class="cls-4" points="34.66424 7.18105 20.73294 23.64155 26.74496 23.64155 18.41105 33.88272 36.61297 20.20019 28.11321 20.20019 34.66424 7.18105"/>
    <polygon class="cls-3" points="26.32343 13.7001 28.64531 13.7001 27.7055 22.16273 24.08447 22.16273 23.06173 13.7001 25.16249 13.7001 25.63239 19.53679 26.01937 19.53679 26.32343 13.7001"/>
    <path class="cls-3" d="M29.97901,21.49934h2.04547s.46991-2.84707-2.51537-2.84707-2.81943,3.26169-1.82434,4.03566,2.68122,1.57556,2.51537,2.57066-1.07802.69104-1.10566,0,0-1.10566,0-1.10566h-2.05787s-.18109,3.26169,2.69362,3.26169c0,0,2.50979.14068,2.51537-2.32188.00451-1.99019-1.83816-2.44627-2.72269-3.28934-.57642-.5494-.9019-1.79328-.01382-1.87962.99509-.09675.46991,1.57556.46991,1.57556Z"/>
  </g>
  <g>
    <path d="M15.92236,24.53025c-.06042-.13755-.14019-.2918-.28667-.32523-.11457-.02615-.22964.03267-.33228.08989-.6755.37654-1.34237.76849-1.99997,1.17547-.04625.02863-.09421.05908-.12202.10582-.06096.10245-.00225.23188.05611.33583.14812.26375.30538.53757.55777.70432.24831.16406.56621.20329.85809.14516s.55966-.20686.79337-.39114c.39339-.31021.71695-.78044.65871-1.27805-.02302-.19647-.10353-.38095-.18311-.56206Z"/>
    <path d="M11.9109,25.27652c.34187-.06044.72715-.53999.33168-.81668-.30986-.21678-.74997.09539-.71812.44609.02842.3129.20104.40336.38644.37059Z"/>
    <path d="M15.74635,22.39819c-.18742-.0536-.39154.09545-.44179.2838-.02832.10617-.01692.22246.03151.3211.05588.11389.16701.20491.29348.21493.09411.00746.18635-.02881.26905-.07435.07001-.03857.1384-.08672.17773-.15631.04875-.08628.045-.19581.00579-.28685-.0392-.09103-.11026-.16524-.18971-.22447-.04448-.03316-.09273-.06259-.14606-.07785Z"/>
    <circle class="cls-4" cx="11.77102" cy="24.7849" r=".14331"/>
    <path class="cls-4" d="M15.6059,22.66365c.03831.06926.01321.15646-.05604.19477-.06925.0383-.15645.01322-.19476-.05604s-.01321-.15646.05604-.19476c.06926-.03831.15646-.01323.19477.05603Z"/>
  </g>
  <g>
    <g>
      <circle class="cls-6" cx="43.21612" cy="25.08876" r="6.47657"/>
      <path class="cls-8" d="M46.19408,30.29171s3.0933-1.66236,2.98949-5.63287-4.10543-6.1785-7.15409-5.39629c0,0,8.41284,2.42571,4.1646,11.02916Z"/>
    </g>
    <g>
      <path d="M40.04738,25.29646c-.09334-.11898-.2371-.19701-.38772-.21044-.21711-.01937-.4427.10535-.53247.30398-.08977.19863-.02974.45692.1446.58775.06163.04627.13414.07656.20871.09604.12971.03387.27534.03366.38958-.0365.05947-.03653.10701-.0898.14717-.14688.09901-.1408.1573-.32641.09353-.48629-.01547-.03882-.03761-.07478-.06342-.10766Z"/>
      <path d="M43.37029,25.11527c-.58927-.17326-.92868.70317-.33828.92573.58316.21982.96243-.74219.33828-.92573Z"/>
      <path d="M38.84246,24.3142c-.0274.0527-.00703.11756.04555.14507.05301.0275.11758.00693.14508-.04555.08859-.16994.28299-.285.47551-.28059.19136.00451.38114.12911.46155.30294.01817.03926.05701.06235.09763.06235.01501,0,.03044-.00315.04503-.00997.05385-.02488.07736-.0887.05238-.14265-.11526-.2492-.37705-.42104-.65145-.42765-.27627-.00337-.54426.15262-.67128.39605Z"/>
      <path d="M42.90763,24.05325c-.18747.05532-.33181.18055-.38609.33496-.01973.05606.00977.11746.06572.13709.05627.01973.11746-.00966.13708-.06572.03149-.08953.12271-.16438.24417-.20018.25456-.07504.55477.04745.68388.27881.01963.03527.05627.05511.09395.05511.01774,0,.03568-.00441.05227-.01365.05186-.02897.07044-.09437.04147-.14622-.17625-.31563-.58574-.48255-.93245-.3802Z"/>
      <path d="M41.84116,27.60073c.14192-.10626.23239-.26987.28175-.44015s.06124-.34884.0722-.52579c.00204-.03299.00361-.06804-.01247-.09691-.02984-.05356-.10277-.0604-.16407-.06075-.39011-.00227-.78022-.00454-1.17032-.0068-.08371-.00049-.18231.00671-.22698.07751-.02149.03404-.02511.07609-.02646.11631-.01088.32421.10038.66385.34748.874.24712.21015.63923.25702.89889.06259Z"/>
      <path class="cls-4" d="M39.5027,25.34808c0,.06678-.05415.12092-.12093.12092s-.12092-.05414-.12092-.12092.05414-.12093.12092-.12093.12093.05415.12093.12093Z"/>
      <path class="cls-4" d="M43.13466,25.34808c0,.06678-.05414.12092-.12092.12092-.06679,0-.12093-.05414-.12093-.12092s.05414-.12093.12093-.12093c.06678,0,.12092.05415.12092.12093Z"/>
    </g>
  </g>
  <g>
    <rect class="cls-4" x="7.36143" y="12.02935" width="1.7273" height="2.30307" rx=".41796" ry=".41796" transform="translate(-3.32494 2.78932) rotate(-16.05742)"/>
    <path class="cls-4" d="M9.05674,12.32557l.26214.98616c.01711.06437.10054.08129.14137.02867l.64912-.83636c.03741-.0482.00968-.11887-.05053-.12877l-.91126-.1498c-.05763-.00947-.10585.04366-.09084.1001Z"/>
  </g>
  <g>
    <rect class="cls-4" x="3.62983" y="27.785" width="1.7273" height="2.30307" rx=".41796" ry=".41796" transform="translate(-7.82855 2.37186) rotate(-16.05742)"/>
    <path class="cls-4" d="M5.32514,28.08122l.26214.98616c.01711.06437.10054.08129.14137.02867l.64912-.83636c.03741-.0482.00968-.11887-.05053-.12877l-.91126-.1498c-.05763-.00947-.10585.04366-.09084.1001Z"/>
  </g>
  <g>
    <rect class="cls-4" x="46.89328" y="33.87706" width="1.7273" height="2.30307" rx=".41796" ry=".41796" transform="translate(-7.82569 14.57623) rotate(-16.05742)"/>
    <path class="cls-4" d="M48.58858,34.17327l.26214.98616c.01711.06437.10054.08129.14137.02867l.64912-.83636c.03741-.0482.00968-.11887-.05053-.12877l-.91126-.1498c-.05763-.00947-.10585.04366-.09084.1001Z"/>
  </g>
  <g>
    <rect class="cls-4" x="50.65576" y="18.33296" width="1.7273" height="2.30307" rx=".41796" ry=".41796" transform="translate(-3.37939 15.01049) rotate(-16.05742)"/>
    <path class="cls-4" d="M52.35106,18.62918l.26214.98616c.01711.06437.10054.08129.14137.02867l.64912-.83636c.03741-.0482.00968-.11887-.05053-.12877l-.91126-.1498c-.05763-.00947-.10585.04366-.09084.1001Z"/>
  </g>
  <g>
    <rect class="cls-4" x="54.02802" y="3.73582" width="1.7273" height="2.30307" rx=".41796" ry=".41796" transform="translate(.78975 15.37375) rotate(-16.05742)"/>
    <path class="cls-4" d="M55.72333,4.03204l.26214.98616c.01711.06437.10054.08129.14137.02867l.64912-.83636c.03741-.0482.00968-.11887-.05053-.12877l-.91126-.1498c-.05763-.00947-.10585.04366-.09084.1001Z"/>
  </g>
</svg>