<?xml version="1.0" encoding="UTF-8"?>
<svg id="_图层_1" data-name=" 图层 1" xmlns="http://www.w3.org/2000/svg" xmlns:xlink="http://www.w3.org/1999/xlink" viewBox="0 0 57.2315 38.53629">
  <defs>
    <style>
      .cls-1 {
        fill: none;
      }

      .cls-2 {
        fill: #e47156;
      }

      .cls-3 {
        fill: url(#_未命名的渐变_24-2);
      }

      .cls-4 {
        fill: url(#_未命名的渐变_24-3);
      }

      .cls-5 {
        fill: #1d2027;
      }

      .cls-6 {
        fill: #fff;
      }

      .cls-7 {
        fill: url(#_未命名的渐变_24);
      }

      .cls-8 {
        fill: #d2effd;
      }

      .cls-9 {
        clip-path: url(#clippath);
      }

      .cls-10 {
        fill: #bad7ee;
      }
    </style>
    <linearGradient id="_未命名的渐变_24" data-name="未命名的渐变 24" x1="9.83167" y1="38.23544" x2="9.83167" y2="35.13143" gradientUnits="userSpaceOnUse">
      <stop offset=".18478" stop-color="#5fadf1"/>
      <stop offset=".73913" stop-color="#a8c4e9"/>
      <stop offset="1" stop-color="#fff"/>
    </linearGradient>
    <linearGradient id="_未命名的渐变_24-2" data-name="未命名的渐变 24" x1="28.61575" x2="28.61575" xlink:href="#_未命名的渐变_24"/>
    <linearGradient id="_未命名的渐变_24-3" data-name="未命名的渐变 24" x1="47.39982" x2="47.39982" xlink:href="#_未命名的渐变_24"/>
    <clipPath id="clippath">
      <path class="cls-1" d="M0,0h54.49851c1.50838,0,2.73299,1.22461,2.73299,2.73299v33.07031c0,1.50838-1.22461,2.73299-2.73299,2.73299H2.73299c-1.50838,0-2.73299-1.22461-2.73299-2.73299V0h0Z"/>
    </clipPath>
  </defs>
  <rect class="cls-5" width="57.2315" height="38.53629"/>
  <g>
    <rect class="cls-7" x="1.24902" y="35.13143" width="17.1653" height="3.10401"/>
    <rect class="cls-3" x="20.0331" y="35.13143" width="17.1653" height="3.10401"/>
    <rect class="cls-4" x="38.81717" y="35.13143" width="17.1653" height="3.10401"/>
  </g>
  <g>
    <g class="cls-9">
      <polyline class="cls-6" points="57.23149 14.36789 54.28723 15.63482 55.60789 16.37292 51.35703 18.85152 52.59514 19.43855 50.11891 21.2628 54.28723 19.43855 53.5031 18.87575 57.2315 17.52849 56.76346 16.07855 57.2315 15.68484"/>
      <polyline class="cls-6" points="0 18.52166 4.48547 21.18111 4.36857 19.38478 8.0445 21.06234 3.28778 17.44222 3.14253 18.70191 0 15.96608"/>
    </g>
    <g>
      <g>
        <circle class="cls-8" cx="28.26933" cy="19.24183" r="7.33356"/>
        <path class="cls-10" d="M24.62574,13.51439s-3.41084,2.04392-3.08336,6.52942,4.97047,6.77121,8.37738,5.72517c0,0-9.64398-2.2986-5.29402-12.25459Z"/>
      </g>
      <g>
        <circle class="cls-8" cx="12.0706" cy="21.37826" r="5.74289"/>
        <path class="cls-10" d="M9.21731,16.89312s-2.67102,1.60059-2.41457,5.11317,3.89236,5.30252,6.56031,4.48336c0,0-7.55218-1.80003-4.14574-9.59654Z"/>
      </g>
      <g>
        <circle class="cls-8" cx="44.95448" cy="19.43855" r="5.74289"/>
        <path class="cls-10" d="M40.83524,16.07855s-2.03199,2.3595-.68369,5.61313c1.34829,3.25363,5.36268,3.80905,7.63754,2.19229,0,0-7.73504.66683-6.95385-7.80542Z"/>
      </g>
      <g>
        <path d="M14.67976,20.23583c-.15682-.04213-.33541.01439-.4406.13811-.08679.10208-.12244.24561-.09352.37644.02892.13084.12176.24596.24351.30194.03388.01558.07007.02684.10726.02961.04624.00343.09244-.00632.13717-.01853.05746-.01569.11429-.03579.16489-.06722.13793-.08572.21577-.25817.19024-.41854-.02552-.16038-.15213-.29969-.30896-.34181Z"/>
        <path d="M10.90342,22.44896c.15076.0102.30476-.05466.4028-.16966.379-.44453-.13368-.86784-.58534-.66455-.42937.19326-.27309.80339.18253.83421Z"/>
        <path d="M11.02828,20.95403c-.10714-.03752-.19616-.12288-.23805-.22839-.02114-.05301-.07982-.07886-.13431-.05793-.05304.02105-.079.08117-.05792.1343.06377.16051.19916.29028.36207.34719.13235.04626.2805.0436.41183-.00505.0303-.01122.05973-.02482.08778-.04091.04958-.02838.06678-.0915.0384-.14108-.02828-.0496-.09148-.06733-.14107-.0384-.09846.05597-.22158.06777-.32873.03026Z"/>
        <path d="M13.49419,20.14968c-.05687.01041-.09364.06377-.0837.11995.01007.05624.06376.09364.11995.0837.03192-.00569.06298-.01429.09299-.02541.12488-.04626.23152-.13745.29524-.25581.07879-.14688.08644-.32588.02031-.47883-.02285-.05238-.08422-.07648-.13603-.05385-.05231.02273-.07649.08359-.05384.13603.04074.09398.03586.20842-.01262.29874-.04857.09036-.14176.1574-.24231.17548Z"/>
        <path d="M12.72528,22.47632c.06513.01104.13065-.01225.1926-.03516.20125-.07442.70229-.14246.72831-.38042.00332-.03049.00141-.06137-.00487-.09218-.03981-.19559-.25536-.38752-.42057-.44415-.21467-.07359-.46502.04712-.57994.24282-.1149.19571-.10991.44515-.03111.65799.02292.06196.05045.04007.11558.0511Z"/>
        <path d="M13.07472,18.38345c-.03487.03086-.06814.06372-.1014.09652.01783-.03015.03595-.05709.05745-.07506.04384-.0366.0496-.10184.01301-.14567-.03669-.0438-.10211-.0495-.14567-.01301-.05704.04773-.09144.10806-.12185.16143-.01137.02015-.02275.0403-.03554.05925-.0313.0466-.07062.0701-.08893.06546-.01262-.00329-.03351-.02043-.0502-.03407l-.28057-.23039c-.04398-.03616-.10898-.02995-.14553.01439-.0362.0441-.02971.10931.0144.14552l.21133.17349-.13573-.08919c-.04782-.03139-.11181-.01812-.14324.02959-.03133.04768-.01812.11181.02959.14324l.25057.16452c-.00587.0109-.0164.02696-.03541.04919-.08785.10232-.18282.20061-.28228.29193-.04201.03861-.0448.10403-.00616.14614.02923.03181.07392.0411.11207.02696.01221-.00452.02387-.01142.03407-.0208.10539-.09687.20613-.20106.29931-.30966.03201-.03738.12931-.15116.07792-.27825-.00423-.01033-.01022-.01965-.01738-.02804.0052.00178.00991.0041.0154.00552.05039.01309.09826.00829.14181-.00785.01086-.00402.02089-.00995.03119-.01529-.01358.02726-.02342.0615-.01731.10071.00982.06398.05656.10298.07651.1196.00736.00615.01523.0116.02271.01759-.02453-.00992-.05203-.01733-.08342-.0161-.0666.00249-.11681.04047-.14072.05848-.12379.09281-.23005.20507-.31589.33378-.03172.0475-.01889.11177.02858.1434.04737.03166.1118.01898.1434-.02858.07284-.10914.16297-.20445.26797-.28318.01647-.01225.02362-.01618.02193-.01729.00843.00269.0276.01637.03499.0215l.28633.20263c.02892.02051.06478.02403.09575.01256.01885-.00698.03584-.01953.04836-.03719.03303-.04658.02194-.11108-.02464-.1441l-.13474-.09539c.03526.01879.07108.03656.10786.05247.0255.01101.05286.011.077.00206.02557-.00947.04731-.02895.05899-.05588.02267-.05244-.00148-.11327-.05382-.13598-.10719-.04633-.20724-.10714-.2977-.18098.0728-.08545.15248-.16653.23673-.24114.04271-.0379.04671-.10323.00891-.14597-.03794-.04281-.10305-.04679-.14598-.00892Z"/>
        <circle class="cls-6" cx="10.71612" cy="21.89372" r=".11961"/>
        <circle class="cls-6" cx="14.31528" cy="20.56038" r=".11961"/>
      </g>
      <g>
        <path d="M43.02679,18.97712c-.09779.08931-.1408.22691-.1405.35932.00023.10556.02825.2159.10184.29159.16086.16544.47474.14616.66723.05115.17328-.08552.16045-.24161.15589-.40696-.0015-.05434-.0063-.10951-.02617-.16011-.04879-.12424-.17979-.19823-.31003-.22746-.1548-.03474-.33113-.0145-.44826.09248Z"/>
        <path d="M46.79784,19.6811c.15837-.01745.30318-.12705.36302-.27471.02144-.05291.03256-.11027.02981-.1673-.0089-.18522-.1758-.34336-.36035-.3614-.18454-.01808-.36966.09198-.46065.25356-.02767.04913-.04786.10358-.05011.15995-.00285.07145.02353.14197.06417.20082.09054.1311.25574.20654.41411.18909Z"/>
        <path d="M42.5874,18.67848c.00557,0,.01124-.00041.0169-.00139.31895-.05331.62546-.20319.86327-.42209.04147-.038.04406-.10244.00596-.14381-.0379-.04147-.10254-.04416-.14381-.00596-.20905.19234-.47867.32412-.75904.37096-.05549.00925-.09288.06176-.08364.11726.00835.04982.05142.08503.10036.08503Z"/>
        <path d="M47.32154,18.58549c.05162,0,.09588-.03909.10125-.0915.00567-.056-.0351-.10592-.091-.11168-.28763-.02924-.55883-.15754-.76372-.36132-.03988-.03968-.10433-.03939-.144.00039-.03968.03988-.03949.10433.00039.14401.23789.2366.55277.38559.88664.41959.00357.00031.00706.0005.01044.0005Z"/>
        <path d="M45.91177,20.8443c.01241-.02543.00535-.05561-.00194-.08295-.06022-.22609-.14063-.47806-.34975-.583-.07301-.03662-.15532-.05093-.23685-.05584-.38606-.02322-.79151.18581-.94624.54024-.02416.05534-.04224.11867-.02133.17533.03648.09886.1643.12216.26967.12222.18577.00011.37151-.02337.55694-.01216.11994.00725.239.029.35917.02893.12017-.00008.24528-.02442.3397-.09875.01209-.00952.02391-.02017.03064-.03403Z"/>
        <path class="cls-6" d="M43.26865,19.17255c0,.07611-.06168.1378-.1378.1378-.0761,0-.1378-.06168-.1378-.1378,0-.0761.0617-.13778.1378-.13778.07611,0,.1378.06168.1378.13778Z"/>
        <path class="cls-6" d="M46.77182,19.17255c0,.07611-.0617.1378-.1378.1378s-.1378-.06168-.1378-.1378c0-.0761.0617-.13778.1378-.13778s.1378.06168.1378.13778Z"/>
      </g>
      <g>
        <path class="cls-2" d="M29.33335,21.16633c-.22582.02219-.45165.04439-.67747.06659-.32128.03158-.65421.06194-.95976-.04227-.00817-.17334.05256-.36492.19049-.47022.13794-.1053.32842-.13782.49348-.08425.04341.0141.08544.034.12065.06304.0468.03861.08023.09314.09343.15237.00038-.14063.1474-.26747.28573-.29283s.28486.04116.3715.15194.09971.31611.08197.45563Z"/>
        <path d="M30.53438,17.90432c-.19651.02678-.36443.19377-.39591.38959-.03147.19582.07358.40516.24763.50024.04369.02387.09106.04106.14.0502.14486.02702.30378-.02313.40057-.13427.04952-.05686.08216-.1271.10134-.20002.02855-.10849.02763-.22646-.01447-.33044-.0744-.18384-.28265-.30207-.47916-.27529Z"/>
        <path d="M26.18763,18.82638c.15701.04095.34113.02024.45441-.09592.2742-.28118.24674-.8099-.18861-.88154-.41224-.06784-.74481.35707-.5709.74778.05357.12033.17766.19644.3051.22968Z"/>
        <path d="M29.20917,18.5445c-.30304-.1188-.64221-.05404-.96769-.05579-.16181-.00087-.33057-.0175-.47932.04618-.28612.12252-.37721.47855-.41194.78786-.06461.57515-.06009,1.15803.01342,1.73211.0083.06484.01783.13081.04627.18966.08297.17169.2952.232.48443.25555.46114.05738.92834.0075,1.38933-.05104.15327-.01946.32062-.04718.42209-.1637.08016-.09207.1012-.22016.11702-.34121.02942-.22505.05207-.45099.06789-.6774.02308-.33059.03077-.66904-.06431-.98649-.0951-.31745-.30868-.61477-.61719-.73573Z"/>
        <path class="cls-6" d="M26.28293,18.10146c0,.06423-.05207.1163-.1163.1163s-.1163-.05207-.1163-.1163.05207-.11631.1163-.11631.1163.05208.1163.11631Z"/>
        <path class="cls-6" d="M30.59026,18.10146c0,.06423-.05208.1163-.11631.1163s-.1163-.05207-.1163-.1163.05207-.11631.1163-.11631.11631.05208.11631.11631Z"/>
      </g>
    </g>
  </g>
</svg>