<?xml version="1.0" encoding="UTF-8"?>
<svg id="_图层_1" data-name=" 图层 1" xmlns="http://www.w3.org/2000/svg" xmlns:xlink="http://www.w3.org/1999/xlink" viewBox="0 0 59.68011 38.53634">
  <defs>
    <style>
      .cls-1 {
        fill: none;
      }

      .cls-2 {
        fill: #1d2027;
      }

      .cls-3 {
        clip-path: url(#clippath-1);
      }

      .cls-4 {
        fill: #fff;
      }

      .cls-5 {
        opacity: .09;
      }

      .cls-6 {
        fill: #5aacee;
      }

      .cls-7 {
        fill: #d2effd;
      }

      .cls-8 {
        clip-path: url(#clippath);
      }

      .cls-9 {
        fill: #bad7ee;
      }
    </style>
    <clipPath id="clippath">
      <rect class="cls-1" x=".00145" y=".00003" width="57.2315" height="38.53629"/>
    </clipPath>
    <clipPath id="clippath-1">
      <polygon class="cls-1" points="0 21.48038 59.68011 4.02024 59.68011 21.94878 0 35.79109 0 21.48038"/>
    </clipPath>
  </defs>
  <rect class="cls-2" x=".00145" y=".00003" width="57.2315" height="38.51334"/>
  <polygon class="cls-4" points="38.78724 35.3229 37.05876 31.60475 32.02581 30.96954 27.79471 35.07631 29.00012 38.51337 33.11013 35.09877 38.78724 35.3229"/>
  <g class="cls-8">
    <g>
      <polygon class="cls-6" points="0 21.48038 57.2344 4.73576 57.22988 22.67706 0 35.79109 0 21.48038"/>
      <g class="cls-3">
        <g class="cls-5">
          <path class="cls-4" d="M57.23295,4.36608l-26.54421,17.39689c-.10912-.16739,10.63287-12.66049,18.46062-21.72567L57.23295.00003v4.36604Z"/>
          <path class="cls-4" d="M17.52895.00004c5.38108,9.32419,12.48852,21.57221,12.66588,21.5243L24.50734.00005"/>
          <path class="cls-4" d="M.00145.00003l29.60045,21.76294c.11527-.15901-9.7649-12.43823-17.30307-21.76297"/>
          <path class="cls-4" d="M28.2518.00004c1.01355,9.3158,2.36027,21.55542,2.44058,21.56576.12046,0,2.03728-12.24602,3.47862-21.56575"/>
          <path class="cls-4" d="M57.23298,10.39897c-9.45067,4.01264-26.20155,11.15619-26.16743,11.364l26.16741-3.68717"/>
          <path class="cls-4" d="M.00145,16.0694l29.60145,6.19309C29.65358,22.02047,7.19274,10.6095.00004,6.96219"/>
          <path class="cls-4" d="M37.72944.00004c-3.12697,9.28094-7.19503,21.46394-7.03705,21.56576L45.00417.00004"/>
          <path class="cls-4" d="M35.99227,38.51339c-2.5763-8.00535-5.13947-15.84745-5.29128-15.83927l.83264,15.83925"/>
          <path class="cls-4" d="M50.38828,38.53634c-9.0333-7.2944-19.39236-15.70567-19.32279-15.86222l26.1961,11.6735-.03698,4.18175-6.83634.00696Z"/>
          <polyline class="cls-4" points="57.23298 22.37562 31.06549 22.22919 57.26159 29.55292"/>
          <path class="cls-4" d="M45.39758,38.53632c-7.14262-8.04461-14.1959-15.93186-14.33209-15.86221l7.94955,15.86221"/>
          <path class="cls-4" d="M0,29.09685c7.18455-1.50029,29.6029-6.19961,29.6029-6.42273,0-.05496-22.41534-1.29405-29.60145-1.68988"/>
          <path class="cls-4" d="M.00145,34.35993l29.65437-11.26004c.06498.16848-11.65346,8.72488-20.89114,15.43644H.00145v-4.1764Z"/>
          <path class="cls-4" d="M29.14122,38.53633c.87263-7.98317,1.6929-15.81135,1.55977-15.86222l-6.11451,15.86222"/>
          <path class="cls-4" d="M21.44791,38.53633c4.45842-7.77228,8.74827-15.32777,8.63931-15.43643l-15.39467,15.43644"/>
        </g>
      </g>
    </g>
    <g>
      <g>
        <circle class="cls-7" cx="6.48289" cy="30.96954" r="6.10746"/>
        <path class="cls-9" d="M2.43512,27.02305s-2.3743,2.30847-1.25185,5.88184,5.32276,4.53907,7.88453,3.04022c0,0-8.25655-.02066-6.63268-8.92206Z"/>
      </g>
      <g>
        <circle class="cls-7" cx="22.29381" cy="27.02305" r="6.10746"/>
        <path class="cls-9" d="M17.10952,24.76864s-1.40126,3.00047.91554,5.94348,6.58656,2.35628,8.45025.04631c0,0-7.72718,2.90891-9.36579-5.98979Z"/>
      </g>
      <g>
        <path class="cls-7" d="M57.22988,22.67706c-1.91574.19215-3.89167-.52226-5.24324-2.09207-2.20079-2.55617-1.9127-6.41246.64348-8.61325,1.27809-1.10039,3.04107-1.59565,4.59976-1.4792"/>
        <path class="cls-9" d="M57.22987,20.74896c-2.25889-.23826-4.91512-1.60235-5.79916-6.40327,0,0-1.40126,3.00047.91554,5.94348,1.27839,1.62393,3.15141,2.17314,4.88671,1.95114"/>
      </g>
      <g>
        <circle class="cls-7" cx="38.78724" cy="21.5883" r="7.36763"/>
        <path class="cls-9" d="M35.12672,15.83426s-3.42668,2.05342-3.09769,6.55976,4.99356,6.80267,8.4163,5.75177c0,0-9.68879-2.30928-5.31862-12.31152Z"/>
      </g>
      <g>
        <path d="M9.16274,30.40459c-.0637-.14993-.14816-.31822-.30653-.35639-.12388-.02986-.24941.03241-.36145.09309-.73734.39937-1.46553.81557-2.18386,1.24818-.05052.03043-.10292.06282-.13369.11313-.06744.11028-.00549.25138.05642.36485.15712.28791.32403.58686.59548.77097.26707.18114.61123.22786.92845.16866s.60951-.21692.86533-.41365c.4306-.33116.78759-.83675.73099-1.37703-.02237-.21332-.10724-.4144-.19114-.61181Z"/>
        <path d="M5.26777,31.15575c.37147-.06098.79559-.57578.37049-.88104-.33306-.23916-.81441.09343-.78454.47409.02664.33963.2126.44001.41405.40695Z"/>
        <path d="M8.41593,28.71405c-.20249-.06062-.42579.09827-.48278.30181-.03212.11474-.02131.24097.02988.34856.05907.12423.17834.22439.31533.23694.10193.00935.20243-.02875.2927-.07703.07642-.04089.15121-.09218.19478-.16711.054-.0929.0514-.2117.0101-.31093-.04129-.09922-.11734-.18062-.20269-.2459-.04779-.03655-.09971-.0691-.15733-.08635Z"/>
        <circle class="cls-4" cx="5.12266" cy="30.62086" r=".15539"/>
        <path class="cls-4" d="M8.26013,28.99999c.04061.0756.01224.16981-.06336.21043-.07559.04061-.16981.01225-.21042-.06335s-.01224-.16981.06335-.21042c.0756-.04061.16982-.01226.21043.06334Z"/>
      </g>
      <g>
        <path d="M57.22957,16.07941c-.0885-.07912-.21897-.08336-.33768-.08296-.78119.00268-1.56231.02321-2.34255.06155-.05488.0027-.11216.00618-.15959.0339-.10396.06077-.11533.20388-.11455.32431.00202.30556.0072.62449.14881.89526.13932.2664.40117.45647.68761.54775s.59586.09069.89253.04202c.49939-.08194,1.01526-.33948,1.20701-.80784.01044-.02552.01981-.05137.02824-.0775"/>
        <g>
          <path d="M54.6566,14.88266c-.02688-.08612-.08751-.15706-.14813-.2239-.02538-.02799-.05162-.0562-.08451-.07477-.03602-.02032-.07805-.02783-.11938-.0289-.20094-.00522-.39389.15521-.42246.35418s.11385.40866.31002.45255c.19614.04389.41594-.08752.4673-.28186.01703-.06443.01703-.13368-.00283-.1973Z"/>
          <path d="M57.24207,14.57592c-.21592-.00697-.44348.13249-.44029.37069.00072.05388.01597.10709.0407.15496.05191.10048.14951.17115.25812.20125.0431.01195.08794.01752.13235.01604"/>
          <path d="M57.23295,13.94785l-.46886.01241c-.04799.00127-.08596.04128-.08468.08927.00127.04722.03992.08468.08689.08468h.00238l.46427-.01229"/>
          <path d="M54.62699,13.89714c-.28472.02607-.5741.03925-.8607.03635h-.00059c-.04774,0-.08664.03856-.08699.08639-.00034.04808.0384.08723.08639.08758.01996.00017.03984.00017.0598.00017.27249,0,.54736-.01249.81789-.03721.04782-.00442.08307-.04672.07874-.09454-.00442-.04791-.04739-.08289-.09454-.07874Z"/>
          <circle class="cls-4" cx="54.10193" cy="14.88059" r=".11769"/>
          <circle class="cls-4" cx="56.98027" cy="14.9022" r=".11769"/>
        </g>
      </g>
      <g>
        <path d="M20.64629,25.55364c.53189.2072.85066-.50726.28363-.72811-.56589-.2204-.8169.52039-.28363.72811Z"/>
        <path d="M24.70181,25.32292c.01004.05877.06479.09756.12484.08869.05887-.00994.09861-.06586.08868-.12484-.05221-.30908-.3708-.54585-.69551-.51551-.29903.02726-.5707.27017-.64585.57756-.01417.05802.02136.11658.07948.13085.00856.00212.01723.00306.0258.00306.04872,0,.09292-.03308.10507-.08255.05391-.22039.24533-.39416.45516-.4133.21236-.02082.42884.13753.46234.33604Z"/>
        <path d="M22.86258,26.76364c-.05814.04091-.13889.06237-.2465.06564-.04218.00117-.09438.00021-.13266-.01859-.02536-.01237-.04101-.03457-.04091-.04789.00043-.05983-.04777-.10856-.10749-.10898h-.00075c-.05941,0-.10782.04799-.10824.1075-.00063.09957.063.19523.16204.24375.06966.03424.14387.04112.2058.04112.00983,0,.01945-.00021.02854-.00042.15146-.00465.2708-.03901.36467-.10496.19068-.13403.25601-.40991.14533-.61509-.04493-.08329-.10982-.15919-.18624-.21351.03678-.03488.0686-.07495.09407-.11903.06089-.10559.07664-.22271.04313-.32102-.02167-.06406-.06543-.12409-.12642-.17346-.1188-.0965-.27525-.13287-.41806-.09767-.15305.03774-.27704.1575-.31604.30506-.01533.05782.01924.11713.07695.13234.05802.01533.11712-.01913.13233-.07695.01882-.07113.08256-.13149.15866-.15031s.16437.00244.22991.05571c.02917.02357.04904.04946.05771.07483.01321.0389.0036.09249-.02568.14333-.03806.06585-.10254.11776-.17504.14376-.03478.00242-.06998.01025-.10496.02409-.05022.01977-.07812.07346-.06554.12589.01257.05243.06258.08933.11543.08245.02959-.00275.05887-.00814.08752-.01586.08731.0055.18032.08773.23181.18308.05814.10803.02113.26457-.07939.33517Z"/>
        <path class="cls-4" d="M20.82451,25.0402c0,.09317-.07553.16871-.16871.16871s-.16871-.07553-.16871-.16871c0-.09318.07553-.16872.16871-.16872s.16871.07553.16871.16872Z"/>
      </g>
      <g>
        <path d="M38.36312,21.70214c.1692-.03071.32931-.12275.45993-.26257.14855.14199.36239.27367.59028.28381.01071.00047.02142.00066.03213.00066.26106,0,.5081-.14029.62174-.35613.02503-.04739.00683-.10617-.04067-.1311-.04739-.02493-.10617-.00682-.1311.04067-.08266.15707-.28049.26277-.47349.25195-.1729-.00767-.38088-.12493-.52989-.29869-.01914-.02228-.04796-.03782-.07688-.03375-.02948.00095-.05687.01527-.07451.03877-.11034.1475-.26058.24778-.41225.27537-.16465.03034-.3349-.02985-.42334-.14863-.03214-.04304-.0929-.05195-.13584-.01981-.04294.03203-.05186.0928-.01981.13584.13147.17649.37841.26646.61369.22361Z"/>
        <path d="M40.78662,20.01769c-.08057-.08141-.19461-.1241-.30874-.13387-.18772-.01607-.40313.07955-.44674.26283-.02255.09473.00422.19411.03989.28472.02003.0509.04329.10129.0777.14381.04308.05323.10244.09216.16669.11582.17802.06555.39723.00312.50782-.151.11061-.15412.09678-.38746-.03663-.52232Z"/>
        <path d="M37.53909,20.11351c-.11145-.20224-.39631-.26453-.60705-.17012-.08864.03971-.16847.10409-.21398.18989-.07197.13567-.04553.31247.05074.43213.09627.11964.25325.18271.40682.18048.05944-.00087.11991-.01116.17204-.03971.11969-.06553.1699-.20872.20688-.34006.01179-.04188.02334-.08465.02186-.12814-.00147-.04368-.0162-.08618-.0373-.12445Z"/>
        <path class="cls-4" d="M37.12678,20.17636c0,.07253-.05879.13134-.13133.13134-.07254,0-.13134-.0588-.13134-.13134s.05879-.13134.13134-.13134c.07253,0,.13133.0588.13133.13134Z"/>
        <path class="cls-4" d="M40.40282,20.17636c0,.07253-.05879.13134-.13133.13134-.07254,0-.13134-.0588-.13134-.13134s.05879-.13134.13134-.13134c.07253,0,.13133.0588.13133.13134Z"/>
      </g>
    </g>
  </g>
  <g>
    <path class="cls-4" d="M21.96391,5.73228c-.00943-.13465-.01644-.24889-.02686-.36283-.00111-.01214-.02071-.0293-.03427-.03217-.02777-.00589-.05744-.00196-.086-.00505-.13119-.0142-.23557-.07279-.28538-.19881-.05059-.12801-.04324-.25482.04494-.36774.07091-.09082.16377-.13366.28116-.13318.443.00183.88601.00005,1.32901,0,.98325-.00012,1.96651-.00002,2.94976-.00002.97605,0,1.95211-.00002,2.92816-.00005.18008,0,.36016-.00031.54024,0,.05761.0001.11536-.00056.1728.00306.19281.01215.32519.15286.32858.34701.00328.18759-.13465.3374-.32359.35146-.12026.00895-.11937.00899-.12627.13435-.00472.08578-.01232.17141-.01999.27556.03517-.02487.05743-.03886.07777-.05524.41224-.33219,1.1052-.40284,1.58905.00306.22187.18613.34385.4304.40851.70694.06386.27312.06702.54959.03253.82637-.05165.41437-.1763.80704-.35722,1.18306-.16049.33356-.37033.63354-.61139.91243-.45494.52635-1.01135.91631-1.63854,1.20944-.13037.06093-.2643.11423-.39495.17459-.0377.01742-.07883.04028-.10296.07228-.37714.50012-.85903.86627-1.42662,1.12415-.00328.00149-.0065.00318-.00991.00426-.06419.02037-.08728.06322-.08596.1309.00406.20881.00308.41772.00387.62659.00067.18007.00053.36015.00184.54022.00061.08359.00178.0844.08274.0849.18006.00112.3602-.00169.54014.00331.082.00228.16668.00876.24477.03165.19778.05796.33281.23337.34433.43883.00564.10054.00359.20171.00048.30246-.00241.078-.02622.10154-.10708.10326-1.56297.0334-4.64917.01541-4.86215.00095-.06801-.00462-.0894-.02272-.09106-.09333-.00253-.10792-.0053-.21644.00287-.32388.01926-.25329.20123-.43577.45549-.45045.17217-.00994.34525-.00348.51792-.00536.06471-.00071.12939-.00429.19408-.00657.03125-.0011.04457-.01933.04569-.04857.00069-.01799.00074-.03601.00077-.05401.00071-.36734.00138-.73468.002-1.10202.00002-.0144-.00234-.02902-.0006-.04317.00889-.07242-.0278-.10888-.09059-.13982-.15799-.07784-.31552-.15769-.46731-.24682-.37406-.21965-.68753-.50934-.95128-.85245-.04382-.057-.09381-.09339-.15982-.1197-.53528-.2133-1.03304-.49224-1.47539-.86384-.49506-.41588-.88987-.91208-1.15695-1.50209-.2314-.51121-.36322-1.04681-.32822-1.61342.01503-.24332.07629-.47682.19181-.69214.17326-.32296.44859-.50756.80649-.57297.22311-.04078.44355-.03657.66054.03771.12755.04367.24206.10965.34876.19079.02473.01881.05067.03603.09327.06615ZM27.80767,7.72501c-.08212-.01505-.14384-.02855-.20622-.03744-.39237-.0559-.78474-.11193-1.17762-.16398-.18909-.39051-.3832-.77859-.57624-1.1672-.0121-.02436-.02738-.04714-.04745-.08135-.02922.05633-.05297.10016-.07498.14485-.16684.33888-.3346.67732-.49879,1.01749-.02968.06149-.06369.09633-.13675.09847-.07859.0023-.15677.01948-.23507.03062-.33095.0471-.66191.09419-.99274.14214-.01509.00219-.02897.0127-.07176.03235.04664.03463.08165.05508.10994.08249.30133.29201.6004.58636.90315.87687-.07484.41492-.14648.83043-.21761,1.24602-.00614.03589-.02052.07462.00425.11504.01768-.00783.0308-.01279.04313-.01924.36663-.19167.73392-.38209,1.09889-.57686.05138-.02742.09191-.03257.13903-.00143.01492.00986.0319.01657.04781.02499.34022.17994.68034.36007,1.02079.53957.02677.01411.0558.02393.09961.04242-.01259-.0805-.02165-.14356-.03241-.20632-.06315-.3685-.1256-.73714-.19149-1.10515-.00833-.0465.00572-.07357.03652-.10334.23032-.22262.45956-.44637.68901-.66988.08425-.08207.16818-.16445.26701-.26113ZM29.24071,9.65928c.03482-.01882.05749-.02861.07749-.04231.09799-.06711.19741-.13238.29242-.20354.42951-.32169.77666-.71672,1.04138-1.1834.20884-.36816.33264-.76485.3788-1.18457.01968-.17897.01471-.35814-.03519-.53492-.09158-.32442-.37653-.42292-.61748-.36061-.15224.03937-.25799.13573-.33814.26676-.06902.11284-.09973.23811-.12661.36523-.04383.20731-.14355.37546-.33827.47521-.03522.01804-.05385.042-.05611.08329-.0057.10415-.01447.20816-.02311.31213-.02594.31203-.05261.624-.07863.93602-.02753.33012-.06343.65877-.16197.97718-.00794.02566-.00858.05357-.01457.09352ZM22.37388,9.66128c-.0108-.04665-.01739-.07327-.02311-.10009-.03821-.17913-.08678-.35684-.1117-.53781-.03232-.23473-.04673-.47197-.06707-.70828-.02775-.32239-.05473-.64486-.07955-.96749-.00341-.04437-.01639-.07181-.05743-.0926-.14987-.07592-.2396-.20358-.29158-.35898-.02617-.07823-.04468-.15905-.06581-.23893-.03936-.14874-.10325-.28296-.2189-.3893-.26049-.2395-.69778-.15519-.81446.19195-.01713.05097-.0334.10266-.04437.15521-.03499.16754-.02487.33511-.00294.50392.05939.45719.21937.8773.4621,1.26649.30379.4871.70527.8792,1.18154,1.19661.03752.02501.07754.04628.13329.07929Z"/>
    <path class="cls-4" d="M25.80642,17.08194c-.51482,0-1.02965-.00043-1.54447.00011-.59042.00062-1.18084.00234-1.77126.00295-.11126.00011-.1233-.02525-.12216-.24565.00276-.53675.00549-1.0735.00855-1.61024.00268-.47047.20418-.86421.4541-.87297.23754-.00832.47521-.00284.71283-.00287.86765-.00012,1.73529.00008,2.60294,0,.85324-.00009,1.70648-.00118,2.55972.00097.06425.00016.12983.01042.19246.03718.17963.07674.28823.3052.33191.65074.01461.11562.0218.2376.02238.35687.0024.48865.00135.97737.0007,1.46605-.00027.20293-.00717.21787-.1103.21799-.65524.00071-1.31047-.0002-1.96571-.00041-.45723-.00015-.91445-.00003-1.37168-.00003,0-.00023,0-.00046,0-.00069Z"/>
  </g>
  <g>
    <polygon class="cls-4" points="32.67539 8.36521 34.85369 6.38928 34.20782 5.89118 32.67539 8.36521"/>
    <polygon class="cls-4" points="33.6574 8.65548 34.9971 8.67658 34.86103 8.14188 33.6574 8.65548"/>
    <polygon class="cls-4" points="20.34621 13.08437 19.02624 13.3113 19.2583 13.81159 20.34621 13.08437"/>
    <polygon class="cls-4" points="19.85745 12.05347 17.68991 11.21829 17.57406 11.98436 19.85745 12.05347"/>
  </g>
</svg>