<?xml version="1.0" encoding="UTF-8"?>
<svg id="_图层_1" data-name=" 图层 1" xmlns="http://www.w3.org/2000/svg" xmlns:xlink="http://www.w3.org/1999/xlink" viewBox="0 0 57.2315 38.53629">
  <defs>
    <style>
      .cls-1 {
        fill: url(#_未命名的渐变_24-2);
      }

      .cls-2 {
        fill: #1d2027;
      }

      .cls-3 {
        fill: #fff;
      }

      .cls-4 {
        fill: none;
        stroke: #5aacee;
        stroke-miterlimit: 10;
        stroke-width: .29369px;
      }

      .cls-5 {
        fill: url(#_未命名的渐变_24);
      }

      .cls-6 {
        fill: #5aacee;
      }

      .cls-7 {
        fill: #d2effd;
      }

      .cls-8 {
        fill: #bad7ee;
      }
    </style>
    <linearGradient id="_未命名的渐变_24" data-name="未命名的渐变 24" x1="17.08925" y1="38.41307" x2="17.08925" y2="35.29464" gradientUnits="userSpaceOnUse">
      <stop offset=".18478" stop-color="#5fadf1"/>
      <stop offset=".73913" stop-color="#a8c4e9"/>
      <stop offset="1" stop-color="#fff"/>
    </linearGradient>
    <linearGradient id="_未命名的渐变_24-2" data-name="未命名的渐变 24" x1="40.14224" x2="40.14224" xlink:href="#_未命名的渐变_24"/>
  </defs>
  <rect class="cls-2" width="57.2315" height="38.53629"/>
  <g>
    <polygon class="cls-6" points="18.12923 35.29464 0 35.29464 37.26564 20.18695 28.73424 24.27491 28.053 25.22284 57.2315 12.42574 32.40748 25.93379 30.21539 29.01458 55.98733 15.62501 55.39487 16.63219 33.88863 28.36287 31.69653 32.74707 24.11306 35.29464 30.51162 31.68064 32.40748 28.30363 29.75308 29.72553 28.61575 31.44366 21.98021 35.29464 23.5206 31.68064 18.12923 35.29464"/>
    <g>
      <polygon class="cls-3" points="9.09424 35.29464 31.54842 24.27491 29.17858 28.30363 55.72073 15.62501 23.55023 33.57651 25.44609 29.54779 15.67053 35.29464 9.09424 35.29464"/>
      <polyline class="cls-4" points="11.09724 35.29464 29.75308 25.8153 27.46045 29.72553 47.51024 19.89072"/>
    </g>
  </g>
  <g>
    <g>
      <circle class="cls-7" cx="17.94349" cy="17.51319" r="6.12923"/>
      <path class="cls-8" d="M14.59517,12.9332s-2.73431,1.88898-2.21883,5.61233,4.51137,5.37884,7.29632,4.32233c0,0-8.16757-1.39604-5.07749-9.93466Z"/>
    </g>
    <g>
      <path d="M17.25935,15.45914c-.21961,0-.39471.02024-.55105.06386-.46591.12981-.85373.51388-.9882.9786-.13956.48285-.01124,1.04081.3349,1.45619.3247.38992.8107.62272,1.29984.62286l.02849-.0003c.63711-.01198,1.23869-.43668,1.46324-1.03286.22472-.59618.05278-1.31244-.41794-1.74178-.12307-.11213-.25393-.19562-.38901-.24795-.19622-.07599-.4019-.08858-.59588-.09503-.0613-.0021-.12292-.0036-.18438-.0036ZM18.22175,16.03268c.37417.34119.51614.93273.33761,1.40659-.17855.47371-.67549.82463-1.18173.83408l-.02279.0003c-.39904-.00015-.79676-.19157-1.06389-.51239-.28182-.33804-.38751-.78821-.27583-1.17437.10539-.36472.40985-.66634.77562-.76827.13057-.03629.27508-.05248.4686-.05248.05801,0,.11618.00135.17419.0033.1676.0057.34375.01604.49516.07465.09954.03852.19818.10193.29306.18858Z"/>
      <path d="M19.10276,17.17962c.0826.61447.53488,1.15414,1.12536,1.34287.13357.04288.26294.06462.38422.06462l.02429-.00031c.15515-.00388.319-.04316.50084-.12008.26023-.11048.46396-.25843.60593-.43967.16009-.20433.2403-.45287.29246-.64656.03942-.14645.0847-.34103.08485-.5458.00104-.55946-.34583-1.09193-.86317-1.32504-.18529-.08334-.39516-.12756-.60699-.12756-.35228,0-.69377.11677-.96164.32873-.43024.3403-.66036.91685-.58615,1.4688ZM19.87929,15.95159c.21406-.16925.48794-.26249.77126-.26249.16865,0,.3349.03478.48091.10059.40249.18123.68298.61072.68222,1.04454-.00015.1691-.03987.3382-.07434.46652-.04453.16565-.11185.37627-.23761.53711-.10958.13987-.27239.25634-.48405.34615-.14557.06162-.27269.09294-.38841.09579l-.01679.0003c-.08964,0-.18739-.01679-.29083-.04992-.4725-.15111-.84862-.59978-.91459-1.09132-.06011-.44687.12533-.9128.47222-1.18727Z"/>
      <path d="M16.75735,17.17681c.00096.03681.00573.07409.02042.10786.02346.05392.07039.09455.12146.12363.17688.10071.40689.07401.58202-.02971.86852-.51431-.75322-1.32645-.72391-.20178Z"/>
      <path d="M20.8092,17.33461c.28999-.15729.23063-.67346-.0997-.74041-.25463-.05159-.49281.2312-.44854.47703.04189.23263.34048.37607.54825.26338Z"/>
      <path d="M18.65964,18.49192c-.07645.219-.02548.44342.01528.62376.01619.07136.07946.11963.14962.11963.01124,0,.02264-.00121.03402-.00375.08275-.01874.13462-.10104.11588-.18364-.04108-.18078-.0688-.32905-.02488-.45497.02054-.05891.07255-.11467.12938-.13852.03313-.01393.06236-.01543.0868-.00373.03837.01813.0712.0697.08364.13131.01545.0766.0054.16745-.00435.2553l-.02039.18273c-.00929.0844.05142.16024.13567.16955.0886.00975.16024-.05157.16955-.13567l.02039-.18288c.01168-.10598.02488-.22622.00015-.34973-.03194-.15816-.12668-.28828-.2535-.34825-.10359-.04886-.22307-.0496-.33685-.00164-.13642.05725-.25154.18004-.30041.3205Z"/>
      <path d="M18.85871,15.48373c-.25709-.02293-.44987-.20943-.54207-.31855-.15244-.1805-.25919-.40656-.36232-.62511-.03612-.0766-.12756-.10958-.20433-.07331-.07675.03614-.10942.12773-.0733.20433.11153.2364.22697.4809.40535.69211.21152.25066.47776.40206.74938.42634.00464.00046.0093.00061.0138.00061.0787,0,.14555-.06011.15276-.13987.00749-.0844-.05487-.15905-.13928-.16654Z"/>
      <path d="M20.46123,14.35012c-.0763-.03809-.16804-.0075-.20613.06821l-.19937.39696c-.08934.17809-.18169.36232-.3247.48689-.10943.09549-.29172.1676-.43278.09924-.07601-.03673-.16806-.00464-.20492.07181-.03673.07629-.00466.16804.07179.20492.0823.03957.16865.05681.25439.05681.19294,0,.38227-.08724.51328-.20132.1886-.16446.29937-.38557.39725-.5806l.19939-.39681c.03807-.07569.00749-.16804-.06821-.20611Z"/>
      <path class="cls-3" d="M17.12744,16.89676c0,.06798-.05512.1231-.12312.1231-.06798,0-.1231-.05512-.1231-.1231,0-.06799.05512-.12312.1231-.12312.06799,0,.12312.05512.12312.12312Z"/>
      <path class="cls-3" d="M20.63841,16.89676c0,.06798-.05512.1231-.12312.1231-.06798,0-.1231-.05512-.1231-.1231,0-.06799.05512-.12312.1231-.12312.06799,0,.12312.05512.12312.12312Z"/>
    </g>
  </g>
  <g>
    <g>
      <circle class="cls-7" cx="41.44326" cy="16.67975" r="6.12923"/>
      <path class="cls-8" d="M40.40684,22.25769s3.25004.6942,5.60604-2.23467.82005-6.97223-1.85892-8.27425c0,0,4.58601,6.9012-3.74712,10.50893Z"/>
    </g>
    <g>
      <path d="M38.14216,16.22834c.12643.11472.31139.16117.47703.1198.15439-.03856.28794-.15139.35387-.29622.06593-.14484.0636-.31857-.00407-.46259-.0479-.1019-.12723-.18875-.22437-.24566-.20686-.12115-.50542-.08073-.64575.11366-.03041.04212-.05297.08942-.0725.13758-.02228.05491-.04093.11163-.04965.17025-.02513.16886.03902.34846.16545.46319Z"/>
      <path d="M41.95463,15.97131c-.07866.07338-.11045.18344-.13005.28922-.02317.12499-.03217.26151.03035.37219.02956.05237.07363.09552.12293.12996.13945.09738.32526.12489.48694.07206s.29542-.18473.35048-.34566c.06156-.17994.01747-.39749-.12504-.52342-.14881-.13149-.37368-.14492-.56329-.08591-.06262.01949-.12435.04679-.17232.09155Z"/>
      <path d="M39.29538,15.32054c.01883.02097.04369.0334.06963.03683.03141.00416.06444-.00484.09006-.02762.0466-.0416.05069-.11299.00921-.15968-.23822-.26724-.46271-.55237-.66732-.84736-.03576-.05127-.10611-.06392-.15735-.0285-.05126.03565-.06403.10611-.0285.15735.20996.30248.44018.59483.68428.86898Z"/>
      <path d="M41.49657,15.74095c.03042.00403.06248-.00431.0878-.02569.29261-.24734.58312-.50485.86334-.76541.04582-.04249.04836-.11396.00587-.15967-.04269-.04597-.11419-.04841-.15968-.00587-.27777.25809-.56563.51318-.85548.75822-.04766.04034-.05364.11171-.0134.15934.01898.02233.04462.03553.07155.03909Z"/>
      <path d="M39.27786,17.54853c.01352.00802.02823.01298.04301.01493.04334.00573.08806-.01418.11195-.05422.08688-.14583.26105-.25452.46572-.29079.21563-.03829.44117.0008.61378.03856.09273.02039.19857.04687.28127.1018.12517.08314.20507.23669.27566.37218.02877.05526.09692.07707.15243.04802.05536-.02876.07687-.09706.04802-.15244-.07903-.15176-.1773-.34058-.35098-.45608-.11515-.07648-.24508-.10937-.35783-.1342-.1927-.04242-.44688-.08552-.70172-.0404-.2725.04824-.49866.19313-.6206.39768-.03192.05357-.01438.12293.03929.15497Z"/>
      <path class="cls-3" d="M38.43367,15.59589c-.00921.06962-.07312.11859-.14274.10938-.06963-.00921-.11861-.07312-.10939-.14274s.07312-.11861.14275-.10939c.06962.00921.11859.07313.10938.14275Z"/>
      <path class="cls-3" d="M42.2942,16.10669c-.00921.06962-.07312.11859-.14274.10938s-.11861-.07312-.10939-.14274.07313-.1186.14275-.10939.11859.07313.10938.14275Z"/>
    </g>
  </g>
  <rect class="cls-5" x="8.46673" y="35.29464" width="17.24504" height="3.11843"/>
  <rect class="cls-1" x="31.51972" y="35.29464" width="17.24504" height="3.11843"/>
</svg>