<?xml version="1.0" encoding="UTF-8"?>
<svg id="_图层_1" data-name=" 图层 1" xmlns="http://www.w3.org/2000/svg" xmlns:xlink="http://www.w3.org/1999/xlink" viewBox="0 0 57.2563 38.55417">
  <defs>
    <style>
      .cls-1 {
        fill: none;
      }

      .cls-2 {
        fill: #e47156;
      }

      .cls-3 {
        fill: url(#_未命名的渐变_24-2);
      }

      .cls-4 {
        fill: url(#_未命名的渐变_24-3);
      }

      .cls-5 {
        fill: url(#_未命名的渐变_24-4);
      }

      .cls-6 {
        fill: #1d2027;
      }

      .cls-7 {
        fill: #fff;
      }

      .cls-8 {
        fill: url(#_未命名的渐变_30);
      }

      .cls-8, .cls-9, .cls-10, .cls-11, .cls-12, .cls-13, .cls-14, .cls-15, .cls-16, .cls-17 {
        opacity: .35;
      }

      .cls-9 {
        fill: url(#_未命名的渐变_30-9);
      }

      .cls-10 {
        fill: url(#_未命名的渐变_30-7);
      }

      .cls-11 {
        fill: url(#_未命名的渐变_30-8);
      }

      .cls-12 {
        fill: url(#_未命名的渐变_30-6);
      }

      .cls-13 {
        fill: url(#_未命名的渐变_30-5);
      }

      .cls-14 {
        fill: url(#_未命名的渐变_30-2);
      }

      .cls-15 {
        fill: url(#_未命名的渐变_30-3);
      }

      .cls-16 {
        fill: url(#_未命名的渐变_30-4);
      }

      .cls-18 {
        opacity: .35;
      }

      .cls-17 {
        fill: url(#_未命名的渐变_30-10);
      }

      .cls-19 {
        fill: url(#_未命名的渐变_24);
      }

      .cls-20 {
        fill: #d2effd;
      }

      .cls-21 {
        clip-path: url(#clippath);
      }

      .cls-22 {
        fill: #bad7ee;
      }
    </style>
    <clipPath id="clippath">
      <rect class="cls-1" x=".01243" y=".02741" width="57.2315" height="38.52675"/>
    </clipPath>
    <linearGradient id="_未命名的渐变_30" data-name="未命名的渐变 30" x1="22.34721" y1=".42762" x2="22.07807" y2="18.54913" gradientUnits="userSpaceOnUse">
      <stop offset="0" stop-color="#fff"/>
      <stop offset="1" stop-color="#231815" stop-opacity="0"/>
    </linearGradient>
    <linearGradient id="_未命名的渐变_30-2" data-name="未命名的渐变 30" x1="7.90713" y1=".50493" x2="7.63579" y2="18.77439" xlink:href="#_未命名的渐变_30"/>
    <linearGradient id="_未命名的渐变_30-3" data-name="未命名的渐变 30" x1="7.08861" y1="7.84672" x2="6.95017" y2="17.16822" xlink:href="#_未命名的渐变_30"/>
    <linearGradient id="_未命名的渐变_30-4" data-name="未命名的渐变 30" x1="16.11157" y1=".43325" x2="15.85714" y2="17.5637" xlink:href="#_未命名的渐变_30"/>
    <linearGradient id="_未命名的渐变_30-5" data-name="未命名的渐变 30" x1="41.24991" y1=".3978" x2="40.94272" y2="21.08104" xlink:href="#_未命名的渐变_30"/>
    <linearGradient id="_未命名的渐变_30-6" data-name="未命名的渐变 30" x1="36.84809" y1=".36825" x2="36.58122" y2="18.33679" xlink:href="#_未命名的渐变_30"/>
    <linearGradient id="_未命名的渐变_30-7" data-name="未命名的渐变 30" x1="27.36278" y1=".40851" x2="27.08663" y2="19.00216" xlink:href="#_未命名的渐变_30"/>
    <linearGradient id="_未命名的渐变_30-8" data-name="未命名的渐变 30" x1="51.18866" y1=".4658" x2="50.8408" y2="23.88727" xlink:href="#_未命名的渐变_30"/>
    <linearGradient id="_未命名的渐变_30-9" data-name="未命名的渐变 30" x1="46.9189" y1=".40867" x2="46.58648" y2="22.79066" xlink:href="#_未命名的渐变_30"/>
    <linearGradient id="_未命名的渐变_30-10" data-name="未命名的渐变 30" x1="32.48014" y1=".35564" x2="32.22989" y2="17.2049" xlink:href="#_未命名的渐变_30"/>
    <linearGradient id="_未命名的渐变_24" data-name="未命名的渐变 24" x1="20.05742" y1="38.15696" x2="20.05742" y2="35.51374" gradientUnits="userSpaceOnUse">
      <stop offset=".18478" stop-color="#5fadf1"/>
      <stop offset=".73913" stop-color="#a8c4e9"/>
      <stop offset="1" stop-color="#fff"/>
    </linearGradient>
    <linearGradient id="_未命名的渐变_24-2" data-name="未命名的渐变 24" x1="5.37585" x2="5.37585" xlink:href="#_未命名的渐变_24"/>
    <linearGradient id="_未命名的渐变_24-3" data-name="未命名的渐变 24" x1="37.19893" x2="37.19893" xlink:href="#_未命名的渐变_24"/>
    <linearGradient id="_未命名的渐变_24-4" data-name="未命名的渐变 24" x1="51.8805" x2="51.8805" xlink:href="#_未命名的渐变_24"/>
  </defs>
  <rect class="cls-6" x=".01243" y=".00002" width="57.2315" height="38.55415"/>
  <g class="cls-21">
    <g>
      <g class="cls-18">
        <path class="cls-8" d="M19.39788,0l5.4585,11.37627c.09406-.04553.19049-.086.28571-.12042L21.0804.00003"/>
        <path class="cls-14" d="M1.65724,0l13.99033,11.36925c-.06494.07947-.12579.16321-.1817.24841L.01244,1.46729V.02741S1.65724,0,1.65724,0Z"/>
        <path class="cls-15" d="M.00953,9.45235l13.97789,4.10953c.02869-.09778.0625-.19562.1015-.29053L.01242,7.53136"/>
        <path class="cls-16" d="M10.58819,0l10.6574,10.82415c.0769-.07593.15924-.14935.24469-.21765L12.95846,0"/>
        <path class="cls-13" d="M43.67315.02741l-7.22901,12.58128c.09363.05359.18646.11255.27338.17566L45.88024.00001"/>
        <path class="cls-12" d="M37.7256.00002l-3.52731,11.03855c.10284.03271.20605.07074.30432.11414L39.34489.00002"/>
        <path class="cls-10" d="M26.63988,0l.33136,11.59331c.0918-.00085.18585.00256.27991.00922L28.09782,0"/>
        <path class="cls-11" d="M57.24345,1.55919l-12.10052,12.91944c-.07349-.06891-.15161-.13446-.23053-.19501L55.77645.02741h1.46748l-.00047,1.53178Z"/>
        <path class="cls-9" d="M50.61089.00002l-10.35998,13.59476c.07898.06055.1571.1261.23053.19501L53.39712.00002"/>
        <path class="cls-17" d="M32.69354.00002l-2.00416,10.40811c.09637.0191.19244.0426.28589.0705L34.12688.00002"/>
      </g>
      <g>
        <rect class="cls-19" x="12.23261" y="35.51374" width="15.64962" height="2.64322"/>
        <rect class="cls-3" x=".01097" y="35.51374" width="10.72975" height="2.64322"/>
        <rect class="cls-4" x="29.37412" y="35.51374" width="15.64962" height="2.64322"/>
        <rect class="cls-5" x="46.51562" y="35.51374" width="10.72975" height="2.64322"/>
      </g>
      <g>
        <g>
          <circle class="cls-20" cx="20.03438" cy="19.27042" r="5.68977"/>
          <path class="cls-22" d="M17.74462,14.5276s-2.81309,1.26657-2.96632,4.75256,3.21784,5.66709,5.93767,5.1691c0,0-7.2235-2.64322-2.97136-9.92166Z"/>
        </g>
        <g>
          <circle class="cls-20" cx="36.49429" cy="15.22782" r="5.68977"/>
          <path class="cls-22" d="M36.49488,9.9612s3.08398-.08209,4.73722,2.99075-.43465,6.50242-3.10057,7.23615c0,0,5.35649-5.52028-1.63665-10.22691Z"/>
        </g>
        <g>
          <path class="cls-20" d="M57.2563,12.096c-1.66554-1.4637-4.10948-1.87522-6.23197-.8508-2.82999,1.36589-4.01688,4.76732-2.651,7.59732s4.76732,4.01688,7.59732,2.651c.47144-.22754.89729-.51157,1.27333-.84004"/>
          <path class="cls-22" d="M57.24413,20.07265c-.60125.5983-1.33067,1.04266-2.10941,1.25699,0,0,5.35649-5.52028-1.63665-10.22691,0,0,2.08545-.05551,3.74584,1.63349"/>
        </g>
        <path d="M22.56069,19.62775c-.00811-.15155-.02857-.32576-.15511-.40954-.09898-.06553-.2287-.05092-.34611-.0334-.77265.11529-1.54264.24822-2.3092.39865-.05391.01059-.1101.02228-.15303.05656-.09411.07513-.08473.21838-.0666.33743.04605.30207.09716.61692.27633.86445.17627.24353.46279.39386.7594.44289s.60271.00384.88926-.0871c.48236-.15308.95571-.48231,1.07793-.97342.04823-.19391.03785-.39697.02714-.59652Z"/>
        <path d="M36.09199,16.19961c.01382-.15113.0187-.32648-.09445-.42762-.0885-.07912-.21897-.08336-.33768-.08296-.78119.00268-1.56231.02321-2.34255.06155-.05488.0027-.11216.00618-.15959.0339-.10396.06077-.11533.20388-.11455.32431.00202.30556.0072.62449.14881.89526.13932.2664.40117.45647.68761.54775s.59586.09069.89253.04202c.49939-.08194,1.01526-.33948,1.20701-.80784.07569-.18493.09469-.38737.11286-.58637Z"/>
        <path d="M18.91113,19.04714c.34467.06471.87975-.25124.60455-.65371-.21561-.31533-.74286-.17712-.83774.16571-.08466.30588.04627.4529.23318.488Z"/>
        <path d="M22.44423,17.90995c-.15804-.11746-.4041-.04933-.51871.11079-.06461.09026-.09527.20423-.08466.31473.01223.12757.08482.2532.20079.30774.08629.04059.1864.03919.2808.02561.07992-.01151.16172-.03264.2237-.0844.07682-.06418.11232-.16904.10771-.26906-.00461-.10001-.04533-.19548-.09931-.27978-.03023-.0472-.06534-.09221-.11031-.12563Z"/>
        <circle class="cls-7" cx="18.95413" cy="18.53261" r=".14476"/>
        <path class="cls-7" d="M22.21688,18.1108c.01153.07912-.04327.15259-.12239.16412-.07911.01153-.15259-.04326-.16412-.12238s.04327-.15259.12238-.16412c.07912-.01153.1526.04326.16413.12237Z"/>
        <g>
          <path class="cls-20" d="M0,11.03294c1.2335-1.18512,2.98537-1.80293,4.80682-1.52389,3.10613.47586,5.2384,3.37963,4.76254,6.48577s-3.37963,5.2384-6.48577,4.76254C1.8768,20.57248.81701,20.02111.00006,19.23378"/>
          <path class="cls-22" d="M.00026,18.66482c1.01104,1.08439,2.45249,1.7309,3.83444,1.69071,0,0-6.73992-3.70661-1.43463-10.2572,0,0-1.30874.36367-2.38788,1.6083"/>
        </g>
        <path d="M2.86872,14.74241c.3309.11616.90765-.11512.69657-.55462-.16538-.34434-.70747-.28757-.85317.03694-.13.28953-.02285.45468.1566.51768Z"/>
        <path d="M6.53328,14.15335c-.13843-.14004-.39197-.10995-.52951.03097-.07753.07944-.1251.18745-.13134.29828-.00723.12795.0455.26312.15188.3346.07915.05319.17832.06696.27368.06784.08074.00073.1648-.00778.2339-.04955.08566-.05181.13662-.15008.14721-.24965.01059-.09955-.0152-.20009-.0558-.29159-.02273-.05123-.05062-.10104-.09002-.14089Z"/>
        <circle class="cls-7" cx="2.98914" cy="14.24032" r=".14476"/>
        <path class="cls-7" d="M6.27813,14.31746c-.00059.07995-.06588.14428-.14583.14369-.07994-.00059-.14428-.06587-.14369-.14582s.06588-.14428.14582-.14369c.07995.00059.14429.06587.1437.14582Z"/>
        <g>
          <path class="cls-2" d="M5.10923,16.29814c.02421-.08651.03971-.18643-.01142-.26029-.0297-.0429-.07781-.06971-.12716-.08665-.13927-.04781-.30107-.02398-.42065.06193.0009.1598.02922.31942.08337.46977.02158.0599.04844.12014.09492.16364.04649.04351.11688.06674.17564.04222.0551-.02301.08688-.08013.11167-.13446.03777-.08279.06911-.16852.09363-.25615Z"/>
          <path d="M5.92525,13.84124c.08086,0,.16377-.01841.24021-.05607.18219-.0897.28815-.25513.34494-.37816.05699-.12365.08621-.2472.08703-.36716.00042-.05823-.04649-.10565-.10461-.10606h-.00073c-.05792,0-.10493.04669-.10534.10461-.00062.08992-.02336.18415-.06769.28034-.04249.09206-.11974.215-.24658.27734-.10617.05226-.23424.04454-.31182-.01862-.04516-.03683-.11152-.02973-.14824.01513-.03673.04515-.02995.11151.01512.14824.08159.06636.18774.10041.29772.10041Z"/>
          <path d="M3.78485,13.54157c-.0433-.03837-.11007-.03447-.14864.00935-.05514.06234-.15956.08394-.25338.0535-.0895-.02932-.17458-.10288-.23948-.20719-.06378-.10256-.10463-.22437-.14403-.34206-.01852-.05524-.07808-.08477-.13333-.06646-.05524.01852-.08498.07818-.06646.13333.04332.12931.08806.26294.16492.38649.0644.10349.17797.23898.35285.29608.04999.01635.10144.02428.15194.02428.12582,0,.24597-.04908.32498-.13868.03847-.04361.03426-.11017-.00937-.14864Z"/>
          <path d="M4.4435,16.44478c.03414.09153.07254.1834.13503.25848.06252.07508.15314.13212.25082.13309.09795.00095.18992-.05465.2536-.12908.06368-.07444.103-.16631.13729-.25807.14981-.40082.2212-.83077.20898-1.2585-.00161-.05628-.00811-.11964-.05201-.15485-.02481-.0199-.05732-.02685-.08862-.03252-.33915-.06148-.69257-.04273-1.02332.0543-.02366.00695-.04904.01558-.06286.036-.01269.01874-.01263.04305-.01192.0657.01387.43842.09968.87447.25301,1.28545Z"/>
        </g>
        <g>
          <path d="M33.42457,14.57524c-.02688-.08612-.08751-.15706-.14813-.2239-.02538-.02799-.05162-.0562-.08451-.07477-.03602-.02032-.07805-.02783-.11938-.0289-.20094-.00522-.39389.15521-.42246.35418s.11385.40866.31002.45255c.19614.04389.41594-.08752.4673-.28186.01703-.06443.01703-.13368-.00283-.1973Z"/>
          <path d="M36.16944,14.96721c.26107-.14038.28597-.5282.01062-.65897-.24378-.11579-.61437.02741-.6103.33093.00072.05388.01597.10709.0407.15496.05191.10048.14951.17115.25812.20125.09993.02771.20922.02111.30086-.02818Z"/>
          <path d="M35.53665,13.82679l.7541-.01996c.04808-.00127.08597-.04128.08469-.08927-.00127-.04722-.04001-.08468-.08689-.08468h-.00238l-.75411.01996c-.04799.00127-.08596.04128-.08468.08927.00127.04722.03992.08468.08689.08468h.00238Z"/>
          <path d="M33.39497,13.58972c-.28472.02607-.5741.03925-.8607.03635h-.00059c-.04774,0-.08664.03856-.08699.08639-.00034.04808.0384.08723.08639.08758.01996.00017.03984.00017.0598.00017.27249,0,.54736-.01249.81789-.03721.04782-.00442.08307-.04672.07874-.09454-.00442-.04791-.04739-.08289-.09454-.07874Z"/>
          <circle class="cls-7" cx="32.8699" cy="14.57317" r=".11769"/>
          <circle class="cls-7" cx="35.74824" cy="14.59478" r=".11769"/>
        </g>
        <g>
          <path d="M50.84603,15.87438c.20942-.09271.32801-.35954.24283-.57213-.04729-.11801-.1505-.2122-.27234-.24851-.05798-.01731-.11894-.02197-.17942-.0241-.10146-.00357-.20723.00075-.29728.04757-.10575.05504-.17743.16643-.19372.28451-.01631.11808.01995.24059.08961.33732.13381.18583.40093.26804.61032.17533Z"/>
          <path d="M52.01086,16.874c.00509.00083.01028.00168.01549.00243.35094.05121.71367-.1134.88228-.40038.0279-.04756.012-.10869-.03548-.13657-.04768-.0278-.10867-.0121-.13657.03548-.12847.2188-.40874.34385-.68138.30402-.25674-.03269-.49832-.21027-.64352-.46206-.02746-.04771-.08865-.0641-.13627-.03653-.04773.02755-.06409.08854-.03654.13627.1727.29921.46028.50651.77199.55734Z"/>
          <path d="M53.63136,15.47126c.05204.00592.09842.01813.13783.0367.15337.07209.24066.24919.32387.43984.02186.05054.08061.07345.13127.05151.05046-.02197.07358-.08078.05151-.13127-.07479-.17151-.1878-.43057-.42174-.54068-.05914-.0277-.12666-.04583-.20047-.05441-.35079-.03935-.70924.18005-.83359.51037-.01938.05163.00669.10908.0582.12854.00632.00241.01276.00405.01921.0051.04595.00749.09228-.01811.10932-.0633.09164-.24347.36598-.41143.62459-.38239Z"/>
          <path class="cls-7" d="M50.54766,15.32822c-.01376.08435-.09328.14157-.17763.12782-.08434-.01375-.14156-.09328-.12781-.17763.01375-.08434.09328-.14156.17762-.12781.08435.01376.14157.09328.12782.17762Z"/>
        </g>
      </g>
    </g>
  </g>
</svg>