<?xml version="1.0" encoding="UTF-8"?>
<svg id="_图层_1" data-name=" 图层 1" xmlns="http://www.w3.org/2000/svg" xmlns:xlink="http://www.w3.org/1999/xlink" viewBox="0 0 147.27 163.14999">
  <defs>
    <style>
      .cls-1 {
        fill: url(#_未命名的渐变_43);
        opacity: .71;
      }
    </style>
    <linearGradient id="_未命名的渐变_43" data-name="未命名的渐变 43" x1="18.32201" y1="96.86475" x2="129.48751" y2="68.17748" gradientUnits="userSpaceOnUse">
      <stop offset=".00362" stop-color="#d0942a"/>
      <stop offset=".49206" stop-color="#e7aa34"/>
      <stop offset=".99384" stop-color="#ad7f26"/>
    </linearGradient>
  </defs>
  <path class="cls-1" d="M139.87422,102.66267c-2.4931-3.14912-9.22156-10.38904-9.71983-10.9246-.47479-.52944-1.98397-1.88312-4.99821-1.88312-1.66033,0-3.5405.41541-5.58842,1.23453-.43766.17503-.9502.39247-1.51189.63796,2.06272-3.6181,5.93926-10.35036,8.1395-13.74242,1.84901-2.85045,1.5277-4.921.9326-6.156-1.17833-2.44511-4.03615-3.01223-4.86217-3.12687-2.66797-.60184-19.29231-4.34699-25.8976-5.71547.66323-.46324,1.18554-1.12733,1.46608-1.9256.02984-.08217,3.61655-9.74945,12.23712-12.98174,2.039-.76517,3.07517-3.04548,2.31047-5.0834-.57595-1.53259-2.0621-2.56139-3.69848-2.56139-.47363,0-.93912.08449-1.38368.25108-9.45279,3.54453-14.29139,11.93131-16.08156,15.77901-.03783-1.58375-.1348-3.25563-.34456-4.7238-.87842-6.14879-4.65326-6.3263-5.08076-6.3263l-1.04935-.00744c.15713-4.74884.91191-8.04811,1.42274-9.14652.68517-.3279,1.26128-.84765,1.66429-1.51251.33704-.55595.50936-1.17391.54758-1.80482.46495.4413,1.07407.71556,1.73405.71556.05915,0,.11852-.00209.17821-.00628,1.0571-.07403,1.95714-.79641,2.25807-1.8125l1.46127-4.93348,4.93356,1.46127c.23805.07054.48084.10473.72122.10473.74889,0,1.4746-.33185,1.96497-.93043.64773-.79052.75858-1.89234.28123-2.79611l-2.55999-4.84682,4.47202-2.08241c1.03493-.48184,1.62119-1.59499,1.43321-2.721-.18806-1.12609-1.10423-1.98831-2.23954-2.10776l-4.70473-.49518.80571-7.4789c.12077-1.12082-.51161-2.18714-1.55305-2.61867-.31518-.13062-.64525-.19364-.9716-.19364-.75191-.00008-1.48522.33418-1.97846.94625l-4.06304,5.04123-2.72394-5.01774c-.45099-.83075-1.31554-1.32841-2.23179-1.32841-.18364,0-.36921.02-.55409.06124-1.10741.24728-1.91653,1.19903-1.98226,2.33186l-.41239,7.10294-5.60795-1.1926c-.17651-.03752-.35371-.05573-.5289-.05573-.91454,0-1.77661.49557-2.22838,1.3222-.53828.98508-.36619,2.20667.42332,3.00463l4.4797,4.5276-1.71847,5.80175c-.25867.87323-.03,1.81816.59928,2.47651.48526.50766,1.15143.78501,1.8363.78501.20333,0,.4082-.02442.6106-.07457l4.81341-1.19229,1.18539,2.59984c-.60432-.36991-1.30662-.58843-2.0566-.58843-.31712,0-.63432.03853-.94284.11457-5.09247,1.24833-6.49707,9.18164-6.67404,16.49054-3.36028-.01698-7.17651-.03116-10.54477-.03116-.24782,0-.49316.00008-.73571.00023-.78571-3.36361-2.89688-10.61973-7.6368-17.46384-.52657-.76098-1.30244-1.29019-2.17311-1.53724-.02333-.23643-.66269-7.21666,3.99754-8.67654,1.32941-.41642,2.07536-1.82599,1.67196-3.15943-.33177-1.09655-1.3391-1.80513-2.43015-1.80521-.23581,0-.47526.0331-.71284.10248v-.00008c-.0007,0-.84486.22867-1.98381.22867-2.93533,0-4.84503-1.39422-5.83833-4.26219-.36193-1.04485-1.3422-1.70925-2.39922-1.70925-.22596,0-.45526.03031-.68292.09372-1.28848.35914-2.07683,1.65545-1.80506,2.96347.13798.693,1.14547,6.73009-4.95999,9.25721-1.28128.53029-1.9004,1.99017-1.39112,3.27989.39379.99725,1.34972,1.60778,2.36302,1.60778.2972,0,.59936-.05256.89369-.16325-.00016.00008-.00023.00016-.00023.00016.00155,0,.81315-.27542,1.96761-.27549,2.67526,0,4.90682,1.40329,6.63273,4.17095.04915.07883.11628.13883.17263.21054-.21007.3758-.37293.77974-.45216,1.21577-.18868,1.03826.03853,2.08761.63975,2.95471,3.28795,4.74791,5.09875,9.89905,5.98825,13.05872-.00426.00031-.00853.00054-.01279.00078-1.57437.09845-2.87246.80222-3.65507,1.98172-.53363.80408-.74501,1.70149-.79183,2.53968-1.52979-2.52201-4.82643-7.04372-9.82851-9.18691-.49285-.21185-1.01687-.31983-1.55468-.31983-1.58072,0-3.00494.93927-3.62833,2.39302-.4158.9695-.42898,2.0428-.03721,3.02215.39193.97943,1.1419,1.74738,2.11179,2.16241,4.0818,1.74924,6.77381,7.0717,6.80055,7.12519.19263.39565.45688.74416.76393,1.04779-.36906-.00023-.72416-.0007-1.10601-.0007-10.23315,0-21.82393.08031-22.81995.08736-.08364-.00333-.21689-.00713-.3882-.00713-2.93145,0-5.04355.97175-5.9474,2.73619-.86493,1.68855-.50626,3.65205,1.06609,5.83585,3.10602,4.31381,14.71161,19.36525,17.91848,23.51853-3.73879-.53843-5.69059-.69641-5.86322-.70967-.06488-.00496-.12984-.00744-.1948-.00744-.19744,0-.39441.02302-.58688.06876-7.1193,1.6908-13.65513,7.00566-18.90093,15.37004-3.85801,6.1515-5.68284,11.77279-5.75865,12.00906-.26534.82726-.08945,1.73281.46626,2.40062.48595.58393,1.20353.91532,1.95218.91532.10752,0,.2155-.00682.32371-.0207.02729-.00341,2.96742-.36937,7.72393-.36937,3.0637,0,7.10558.16767,11.72078.71098-.26487.45371-.39425.9795-.3441,1.51367l.37882,4.03622.54076,9.61092c.00488.08666.01419.17302.02798.25875.06752.422.75129,4.16312,3.91522,5.55362.66889.29394,2.4138.92764,5.98205,2.21884,9.11016,3.29648,28.0669,10.15602,37.09343,14.88028,6.68776,3.50019,9.11528,4.51233,10.82274,4.51233,1.45724,0,2.27093-.75455,2.62627-1.2043.24573-.311.40782-.63533.51952-.9685.7299.63548,1.60351.98694,2.56441.98694,1.91436,0,3.52345-1.35817,4.56729-2.37977,7.00465-6.85574,18.25389-15.99126,20.9097-16.48372,5.28913-.98067,4.95317-6.39715,4.77271-9.30706-.04589-.73951-.08922-1.43801-.06604-1.97149.0231-.53014.10395-1.17298.18209-1.79467.24914-1.9811.48448-3.85235-.68866-5.18231-.21247-.24084-.46355-.42782-.72967-.58804,5.0203-3.806,11.34777-8.01516,14.93757-8.70553,2.69247-.51781,5.91105-1.45677,6.90892-4.14374,1.02997-2.7734-1.09624-5.45928-2.23853-6.90218ZM79.90154,25.46824l2.14497-7.24193-5.5361-5.59532,8.50073,1.80769.58378-10.05541,4.54225,8.36724,6.45475-8.00865-1.07849,10.0106,7.23705.76168-6.89318,3.20974,3.80732,7.20844-7.36898-2.18264-2.18272,7.36898-3.35097-7.34968-6.86039,1.69925ZM88.86334,111.63168c.17697-.1579.32867-.27751.45812-.37169-.05922.1524-.11566.32278-.17325.4858-.09178-.04465-.18728-.08062-.28487-.1141ZM91.13451,62.32044c.06163.07163.12356.14271.19046.20999-.07364.01496-.14403.0324-.21457.04984.00225-.02488.0124-.04837.01388-.07333.00124-.02093.00527-.09287.01023-.18651ZM91.57767,108.01219c-.08116-.27782-.2093-.54332-.38107-.78463.14108-.03108.25813-.08256.38937-.1231.00178.06635-.01046.12759-.00419.1955.02023.21891.0869.422.15255.62486-.05395.02729-.10465.05721-.15666.08736ZM124.06435,76.60276c-3.15842,4.8693-9.60697,16.31869-9.60697,16.31869l-22.49732,11.15196s-.77168.73036-1.81885.73036c-.87889,0-1.95187-.51456-2.92548-2.40697-3.00215-5.83547-4.73767-11.60745-4.73767-11.60745l8.24988-24.97794s.12666-.8702,1.82064-.8702c.28224,0,.6082.02419.98408.08062,2.63201.39479,28.29449,6.18522,28.29449,6.18522,0,0,5.39571.52649,2.23721,5.39571ZM92.77996,59.28984c.17131-.49091,4.3204-12.06697,15.41104-16.22567.16209-.0607.32852-.08953.49239-.08953.56944,0,1.10772.34797,1.32034.91361.27309.72788-.09628,1.53964-.82408,1.81273-9.83301,3.68686-13.7035,14.41015-13.7418,14.51805-.2034.57897-.74757.94152-1.32864.94152-.15426,0-.31131-.02527-.46495-.07922-.73323-.25666-1.12035-1.05826-.86431-1.79149ZM44.43713,21.26791c-1.69723.00008-2.86138.43797-2.86138.43797,8.32639-3.4464,6.47552-12.12084,6.47552-12.12084,1.74328,5.03348,5.60416,5.97089,8.23857,5.97089,1.56382,0,2.69557-.3303,2.69557-.3303-6.29444,1.97172-5.87903,9.99006-5.77586,11.23095-.02713.01093-.05449.02093-.08147.0324-2.76394-4.32404-6.26964-5.22115-8.69095-5.22107ZM57.56406,47.95463c.51122-.03194,1.60212-.05341,3.06184-.06721-.25929-1.37492-1.96412-9.54651-7.10829-16.97487-.3965-.57169-.28782-1.31794.19232-1.78901.11829-.02302.2365-.05.35309-.09069.22705-.0793.4313-.19495.62037-.32821.44324.00326.87788.21348,1.14872.60486,5.98569,8.64289,7.5465,17.93995,7.60998,18.33188.01264.07736.01411.15364.01395.22953.89137-.00271,1.84444-.00395,2.83673-.00395,4.25366,0,9.2221.02263,13.08189.04504-.00395-.04124-.0131-.08093-.01357-.12317-.0355-3.57756.20147-15.33802,4.75814-16.45496.11201-.0276.22433-.04085.33503-.04085.63153,0,1.20973.43006,1.36771,1.07314.18503.75509-.2772,1.51778-1.03229,1.70281-1.29314.31681-2.68526,6.23964-2.61286,13.69187.00047.0576-.00915.1124-.01543.16821,2.2038.01434,3.63143.02558,3.63143.02558,0,0,1.97397,0,2.56619,4.14544.59223,4.14552.2296,10.25641.2296,10.25641l-7.59541,23.38659s-1.64018-4.64566-2.36636-7.08015c-.66044-2.21419-4.46846-13.67699-7.2217-17.50237-3.42989-4.7655-8.07338-5.69408-11.29304-5.69408-1.07671,0-1.99428.1038-2.65387.20278l-1.6708-3.56918s-1.38181-3.94801,1.77661-4.14544ZM41.02112,45.67641c-.71478-.30588-1.04593-1.13337-.73936-1.84823.22891-.53386.74796-.854,1.29383-.854.18511,0,.3734.03682.55432.11457,5.97887,2.5617,9.35923,9.39814,9.49984,9.68829.34069.69912.04915,1.54165-.64998,1.88164-.19798.09697-.40828.14271-.61448.14271-.52161,0-1.02276-.29084-1.26647-.79129-.03008-.06147-3.07517-6.1898-8.07772-8.33368ZM54.09542,54.68232c.01543-.04465.01876-.09093.03256-.13589l.77819,1.66235c-.56642-.00395-1.16081-.00744-1.78576-.01046.42968-.42161.77215-.92904.97501-1.516ZM23.27217,58.80427c.21069,0,.33852.00752.33852.00752,0,0,12.1072-.08775,22.86963-.08767,5.38068,0,10.42601.02194,13.45266.08767,9.08048.19744,10.06758,7.10659,12.83121,14.80525,2.76363,7.69874,10.64926,28.66332,10.64926,28.66332-12.43075-11.05677-44.28676-14.43356-44.28676-14.43356,0,0-15.12105-19.55967-18.6745-24.4947-3.06323-4.25467,1.50259-4.54783,2.81998-4.54783ZM7.42362,115.86139s7.0355-21.933,22.8277-25.68365c0,0,9.32357.71719,27.97063,4.93069,14.71091,3.32408,30.76092,13.45754,30.76092,13.45754,0,0-4.57194,1.17593-8.51995,13.61234-3.94801,12.43641-4.3111,15.42391-4.3111,15.42391,0,0-18.8107-14.90183-36.57693-19.24471-9.601-2.3469-18.21452-2.88618-24.10393-2.88618-5.00883,0-8.04733.39006-8.04733.39006ZM85.60864,158.76687c-1.17795,0-3.90134-1.21663-9.64488-4.22265-12.10751-6.33669-40.66509-16.04637-43.23137-17.17409-1.98792-.87361-2.42907-3.62965-2.42907-3.62965l-.54347-9.65813-.38332-4.08366s10.83708,1.24298,25.13995,8.04098c13.98272,6.6459,24.14556,15.89785,24.14556,15.89785,0,0,.85501-7.29116,2.92773-15.40515,2.77882-10.87801,6.44839-14.50789,6.44839-14.50789-2.41333,9.86146-3.21199,35.79293-2.32372,40.43185.48588,2.53751,1.31655,4.31056-.10581,4.31056ZM116.33275,138.76017c-3.94809.73207-16.70898,11.76884-22.2233,17.16587-1.14229,1.11803-2.05885,1.65506-2.79061,1.65506-2.80479,0-2.88704-7.89974-2.491-21.2638.71564-24.14897,3.81654-25.85364,3.81654-25.85364.06899-.2417.29069-.36061.62641-.36061,1.84102.00016,7.10829,3.57763,9.38737,10.10719,1.91366,5.48245,2.27117,10.10052,3.9446,10.87747.59246.27511,1.15353.39836,1.69491.39836,2.78099,0,5.04115-3.25307,8.34585-5.89686.96245-.7699,1.60142-1.09004,2.01551-1.09004,1.28461,0,.40534,3.08067.3058,5.36967-.13162,3.02688,1.316,8.15934-2.63208,8.89133ZM134.72416,111.21418c-6.84326,1.316-21.05636,12.89702-23.42527,15.39748-1.55204,1.63832-2.48255,1.92063-2.93983,1.92063-.24053,0-.35014-.07821-.35014-.07821,0,0-.78966-6.05368-4.2418-12.76539-3.45221-6.71172-9.18164-8.15934-9.18164-8.15934-1.42034-.53425.78959-1.87095.78959-1.87095,0,0,19.21394-9.84169,25.13607-12.21053,1.97428-.78966,3.49469-1.05283,4.64504-1.05283,2.30031,0,3.11951,1.05283,3.11951,1.05283,0,0,7.10643,7.63293,9.60697,10.79143,2.50038,3.15842,3.68484,5.65888-3.1585,6.97489Z"/>
</svg>