<?xml version="1.0" encoding="UTF-8"?>
<svg id="_图层_1" data-name="图层 1" xmlns="http://www.w3.org/2000/svg" viewBox="0 0 147.27 163.15">
  <defs>
    <style>
      .cls-1 {
        fill: #000;
      }
    </style>
  </defs>
  <path class="cls-1" d="M76.84,140.43s0-4.37,4.39-17.5c4.39-13.12,11.42-15.41,11.42-15.41,0,0-19.32-10-35.56-13.96-16.25-3.96-32.49-3.75-32.49-3.75C7.03,93.77,0,116.27,0,116.27c0,0,15.37-.83,35.13,3.75s41.71,20.41,41.71,20.41Z"/>
  <path class="cls-1" d="M36,88.56s34.03,2.5,49.4,12.71c0,0-9.66-21.46-12.73-29.58-3.07-8.12-4.17-15.42-14.27-15.62-10.1-.21-40.39,0-40.39,0,0,0-7.46-.42-3.51,4.79,3.95,5.21,21.51,27.71,21.51,27.71Z"/>
  <path class="cls-1" d="M92.64,63.45l-9.17,26.36s1.93,6.09,5.27,12.25c2.37,4.38,4.54,3.33,4.54,3.33l25.76-13.33s7.17-12.08,10.68-17.22c3.51-5.14-2.49-5.69-2.49-5.69,0,0-28.54-6.11-31.47-6.53-2.93-.42-3.12.83-3.12.83Z"/>
  <path class="cls-1" d="M145.09,104.01c-2.78-3.33-10.68-11.39-10.68-11.39,0,0-2.05-2.5-8.64,0-6.59,2.5-27.95,12.89-27.95,12.89,0,0-2.46,1.41-.88,1.97,0,0,6.37,1.53,10.21,8.61s4.72,13.47,4.72,13.47c0,0,1.02.69,3.66-1.94,2.63-2.64,18.44-14.86,26.05-16.25s6.29-4.03,3.51-7.36Z"/>
  <path class="cls-1" d="M82.48,129.64c-2.31,8.56-2.38,18.03-2.38,18.03,0,0-9.43-8.91-24.98-15.93-15.91-7.17-30.7-11.11-30.7-11.11l.33,2.67.7,11.83s.49,2.91,2.7,3.83c2.85,1.19,35.67,9.79,48.08,18.12,12.4,8.33,13.28,7.08,12.29,2.19-.99-4.9-.1-31.59,1.13-42.11,0,0-4.08,1-7.17,12.48Z"/>
  <path class="cls-1" d="M120.68,126.05c-4.39,3.33-11.42,13.47-12.29,12.5-.88-.97,2.2-10.28-2.34-16.66-4.54-6.39-10.18-13.94-11.27-11.31,0,0-3.45,1.8-4.24,27.28-.56,17.78-.4,26.25,5.87,20.69,6.27-5.55,20.32-17.34,24.71-18.11,4.39-.77,2.78-6.19,2.93-9.38s1.02-8.33-3.37-5Z"/>
  <path class="cls-1" d="M37.41,42.25c5.57,2.27,8.96,8.73,8.99,8.79.27.53.8.83,1.36.83.23,0,.47-.05.7-.17.75-.38,1.04-1.3.66-2.05-.16-.31-3.92-7.53-10.56-10.23-.78-.32-1.67.06-1.99.84-.32.78.06,1.67.84,1.99Z"/>
  <path class="cls-1" d="M53.78,24.88c-.5-.68-1.45-.83-2.13-.33-.68.5-.83,1.45-.33,2.13,5.71,7.82,7.6,16.4,7.89,17.86-1.64.01-2.87.04-3.44.07-3.51.21-1.98,4.37-1.98,4.37l2.75,5.58c2.93-.42,11.52.88,14.15,6.08,2.63,5.21,8.12,20,9,22.29.88,2.29,4.39.83,4.39.83l7.24-22.71s-.66-7.71-1.32-12.08c-.66-4.37-2.85-4.37-2.85-4.37,0,0-1.6-.01-4.08-.03,0-.06.02-.12.02-.18-.07-7.17,1.32-14.03,2.92-14.4.82-.19,1.33-1.01,1.14-1.83-.19-.82-1.01-1.33-1.83-1.14-5.05,1.17-5.32,13.62-5.28,17.41,0,.04.01-.08.01.13-5.31-.03-12.53-.06-17.78-.04,0-.09,0-.17-.02-.26-.07-.41-1.81-10.25-8.48-19.38Z"/>
  <path class="cls-1" d="M94.97,56.53c-.29.79.11,1.66.9,1.96.17.06.35.09.53.09.62,0,1.2-.38,1.43-1,.04-.11,4.34-11.42,15.29-15.31.79-.28,1.21-1.15.92-1.95-.28-.79-1.16-1.21-1.95-.93-12.32,4.38-16.94,16.61-17.13,17.13Z"/>
  <path class="cls-1" d="M50.94,22.11s-1.19-9.78,6.41-12.04c0,0-9.07,2.51-12.16-5.95,0,0,2.06,9.15-7.2,12.79,0,0,7.72-2.76,12.96,5.2Z"/>
  <polygon class="cls-1" points="82.99 13.24 80.6 20.88 88.23 19.09 91.96 26.84 94.39 19.07 102.58 21.37 98.35 13.76 106.01 10.38 97.97 9.57 97.77 1.35 92.33 5.95 85.7 0 86.41 7.2 79.27 8.4 82.99 13.24"/>
</svg>

