<?xml version="1.0" standalone="no"?>
<!DOCTYPE svg PUBLIC "-//W3C//DTD SVG 20010904//EN"
 "http://www.w3.org/TR/2001/REC-SVG-20010904/DTD/svg10.dtd">
<svg version="1.0" xmlns="http://www.w3.org/2000/svg"
 width="82.000000pt" height="90.000000pt" viewBox="0 0 82.000000 90.000000"
 preserveAspectRatio="xMidYMid meet">
<metadata>
Created by potrace 1.15, written by Peter Selinger 2001-2017
</metadata>
<g transform="translate(0.000000,90.000000) scale(0.100000,-0.100000)"
fill="#000000" stroke="none">
<path d="M0 450 l0 -450 410 0 410 0 0 333 -1 332 -44 -93 c-24 -50 -47 -101
-50 -112 -15 -46 -20 -11 -23 145 -2 91 0 165 3 165 17 0 86 -43 99 -62 15
-21 16 -15 16 85 l0 107 -181 0 c-174 0 -180 -1 -160 -17 21 -18 261 -619 261
-654 0 -9 -8 -26 -17 -37 -18 -20 -373 -162 -404 -162 -38 0 -61 46 -178 350
-109 283 -121 317 -110 342 10 24 34 36 188 96 97 38 183 72 191 75 8 3 -81 6
-197 6 l-213 1 0 -450z m662 380 c16 -19 18 -42 18 -184 l-1 -161 -69 180
c-38 99 -70 184 -70 189 0 5 23 6 52 4 38 -4 57 -12 70 -28z m-472 -690 c0 -5
-4 -10 -10 -10 -5 0 -10 5 -10 10 0 6 5 10 10 10 6 0 10 -4 10 -10z"/>
<path d="M362 700 c-40 -15 -83 -35 -97 -44 -34 -23 -58 -73 -52 -110 8 -50
121 -336 133 -336 5 0 23 14 40 31 24 25 29 38 29 81 0 45 4 55 38 88 32 33
37 44 37 84 0 53 -6 55 -78 27 l-49 -20 -11 23 c-9 20 -6 24 39 45 57 26 82
64 77 119 -4 46 -14 48 -106 12z"/>
</g>
</svg>
