<svg width="444" height="124" viewBox="0 0 444 124" fill="none" xmlns="http://www.w3.org/2000/svg">
<mask id="mask0_213_2165" style="mask-type:alpha" maskUnits="userSpaceOnUse" x="0" y="0" width="444" height="124">
<rect width="444" height="124" fill="#1D2125"/>
</mask>
<g mask="url(#mask0_213_2165)">
<path d="M74.0675 389L61.1364 192.664L61.571 192.638L76.2534 388.855C75.516 388.895 74.7917 388.947 74.0675 389ZM33.9575 388.855L32.0481 388.71L47.9157 192.585L48.6268 192.638L33.9575 388.855ZM116.653 382.982L73.2379 190.965L74.186 190.754L118.286 382.613L116.653 382.982ZM-8.04869 382.666L-9.91856 382.245L35.3007 190.636L35.9986 190.794L-8.04869 382.666ZM157.132 370.92L85.6554 187.304L86.1821 187.107L159.068 370.183C158.422 370.42 157.777 370.67 157.132 370.92ZM-48.7381 370.301L-50.5289 369.603L23.1729 186.844L23.8444 187.107L-48.7381 370.301ZM195.701 352.827L96.9668 181.998L97.6252 181.616L197.308 351.906L195.701 352.827ZM-87.1494 352.011C-87.742 351.668 -88.3345 351.339 -88.9139 350.997L11.9536 181.392L12.4672 181.682L-87.1494 352.011ZM230.715 329.533L107.765 174.821L108.146 174.518L232.387 328.216C231.834 328.651 231.268 329.098 230.715 329.533ZM-122.15 328.4C-122.769 327.913 -123.388 327.426 -123.994 326.926L1.59035 174.321L1.80103 174.479L-122.15 328.4ZM262.121 301.103L117.101 166.38L117.562 165.893L263.464 299.681L262.121 301.103ZM-153.306 299.852L-154.557 298.522L-8.0882 165.34L-7.54831 165.919L-153.306 299.852ZM288.694 268.67L125.318 156.346L125.555 156.004L289.945 266.879C289.524 267.472 289.116 268.077 288.694 268.67ZM-179.774 267.116C-180.169 266.55 -180.564 265.984 -180.946 265.404L-15.8705 155.53L-15.5677 155.964L-179.774 267.116ZM310.408 232.142L131.612 145.785L132.02 144.956L311.159 230.627L310.408 232.142ZM-201.093 230.759C-201.396 230.14 -201.699 229.508 -202.001 228.889L-22.1649 144.653L-21.941 145.114L-201.093 230.759ZM326.144 193.309L136.445 133.868L136.59 133.407L326.789 191.268C326.579 191.953 326.355 192.638 326.144 193.309ZM-216.71 191.545C-216.908 190.912 -217.105 190.267 -217.303 189.635L-26.7474 132.933L-26.563 133.513L-216.71 191.545ZM335.928 152.093L139.289 121.912L139.394 121.187L336.205 150.236L335.928 152.093ZM-226.178 150.565C-226.283 149.894 -226.376 149.235 -226.481 148.564L-29.4995 120.661L-29.4205 121.24L-226.178 150.565ZM339.339 110.653L140.356 108.902V108.085H339.352V108.48C339.352 109.204 339.339 109.929 339.339 110.653ZM-30.3554 108.678H-229.352V106.861L-30.3554 107.888V108.678ZM139.447 96.0891L139.381 95.6677L336.112 66.0527C336.218 66.7769 336.336 67.488 336.442 68.2122L139.447 96.0891ZM-29.4073 95.7994L-226.27 67.0798C-226.165 66.3951 -226.06 65.7235 -225.954 65.0387L-29.3152 95.2595L-29.4073 95.7994ZM136.8 84.2115L136.524 83.316L326.645 25.2053L327.145 26.7986L136.8 84.2115ZM-26.642 83.6979L-216.868 25.9164L-216.289 24.0596L-26.4577 83.0527L-26.642 83.6979ZM132.231 72.4524L131.889 71.7413L310.988 -14.0225L311.778 -12.3896L132.231 72.4524ZM-22.0464 72.0705L-201.304 -13.3641L-200.5 -15.0101L-21.704 71.3463L-22.0464 72.0705ZM125.976 61.5755L125.463 60.8381L289.669 -50.3005L290.643 -48.8916L125.976 61.5755ZM-15.6203 61.062L-180.103 -49.6816C-179.721 -50.2347 -179.326 -50.8009 -178.944 -51.354L-15.2911 60.5748L-15.6203 61.062ZM117.733 51.2649L117.483 51.0016L263.095 -83.1022C263.609 -82.5623 264.123 -82.0093 264.636 -81.4562L117.733 51.2649ZM-7.6273 51.1464L-153.675 -82.4965C-153.214 -82.9969 -152.74 -83.4841 -152.279 -83.9713L-7.23228 50.725L-7.6273 51.1464ZM108.476 42.7057L108.041 42.3633L231.992 -111.558C232.532 -111.137 233.072 -110.703 233.612 -110.281L108.476 42.7057ZM1.78787 42.495L-122.637 -111.058C-122.084 -111.506 -121.518 -111.94 -120.965 -112.375L2.15657 42.1921L1.78787 42.495ZM98.0466 35.5817L97.4672 35.2525L196.86 -135.195L198.572 -134.221L98.0466 35.5817ZM12.3092 35.371L-87.5971 -134.787C-87.0045 -135.129 -86.412 -135.459 -85.8194 -135.801L12.8096 35.0813L12.3092 35.371ZM86.5377 30.0116L86.011 29.8009L158.501 -153.433C159.147 -153.183 159.792 -152.933 160.437 -152.682L86.5377 30.0116ZM23.7654 29.8931L-49.3833 -153.091C-48.7249 -153.341 -48.0797 -153.604 -47.4213 -153.854L24.2526 29.6956L23.7654 29.8931ZM74.502 26.285L73.9753 26.1665L117.68 -165.785C118.365 -165.627 119.05 -165.482 119.721 -165.324L74.502 26.285ZM35.7747 26.2192L-8.61491 -165.574C-7.93018 -165.732 -7.23227 -165.89 -6.53435 -166.035L36.2619 26.1139L35.7747 26.2192ZM61.8738 24.3625L61.3076 24.323L75.7003 -171.921C76.3851 -171.868 77.083 -171.816 77.7677 -171.763L61.8738 24.3625ZM48.3897 24.3362L33.3913 -171.855C34.076 -171.908 34.7608 -171.96 35.4587 -172L48.9428 24.2967L48.3897 24.3362Z" fill="url(#paint0_linear_213_2165)"/>
<g clipPath="url(#clip0_213_2165)">
<path d="M159.602 82.8566L159.065 83.3288C159.437 83.7519 159.4 84.3952 158.983 84.7617C158.566 85.1281 157.923 85.0818 157.551 84.6587L156.544 85.5435C156.916 85.9666 156.879 86.61 156.462 86.9764C156.045 87.3428 155.402 87.2966 155.031 86.8734L154.024 87.7582C154.395 88.1814 154.358 88.8247 153.941 89.1911C153.524 89.5575 152.882 89.5113 152.51 89.0882L151.54 89.9404C153.341 91.9901 153.163 95.0897 151.143 96.8648C149.123 98.6398 146.032 98.4117 144.231 96.362L143.261 97.2142C143.633 97.6373 143.596 98.2806 143.179 98.647C142.762 99.0134 142.12 98.9672 141.748 98.5441L140.741 99.4289C141.113 99.852 141.076 100.495 140.659 100.862C140.242 101.228 139.599 101.182 139.227 100.759L138.22 101.644C138.592 102.067 138.555 102.71 138.138 103.076C137.721 103.443 137.081 103.394 136.71 102.971L135.718 103.842C137.381 105.735 137.354 108.52 135.748 110.336L182.025 163.006C184.03 161.65 186.798 161.978 188.461 163.871L189.453 163C189.081 162.577 189.118 161.933 189.535 161.567C189.952 161.2 190.595 161.247 190.967 161.67L191.974 160.785C191.602 160.362 191.639 159.719 192.056 159.352C192.473 158.986 193.116 159.032 193.487 159.455L194.494 158.57C194.123 158.147 194.159 157.504 194.576 157.137C194.993 156.771 195.636 156.817 196.008 157.24L196.975 156.391C195.174 154.341 195.351 151.242 197.372 149.466C199.392 147.691 202.489 147.914 204.29 149.964L205.26 149.112C204.888 148.689 204.925 148.045 205.342 147.679C205.759 147.312 206.401 147.359 206.773 147.782L207.78 146.897C207.408 146.474 207.445 145.83 207.862 145.464C208.279 145.098 208.922 145.144 209.294 145.567L210.301 144.682C209.929 144.259 209.966 143.616 210.383 143.249C210.8 142.883 211.443 142.929 211.814 143.352L212.352 142.88C210.551 140.83 210.729 137.731 212.749 135.956L166.526 83.3485C164.5 85.129 161.403 84.9063 159.602 82.8566Z" fill="#FFD850"/>
<path d="M187.359 154.898C185.484 156.546 182.61 156.339 180.938 154.436L144.103 112.514C142.432 110.611 142.597 107.734 144.472 106.086L161.159 91.4248C163.031 89.7801 165.908 89.984 167.58 91.8865L204.415 133.809C206.086 135.712 205.921 138.589 204.046 140.237L187.359 154.898Z" stroke="#FF9633" stroke-width="1.5" stroke-miterlimit="10" stroke-linecap="round"/>
<path d="M168.508 92.9485L145.034 113.573" stroke="#FF9633" stroke-width="1.5" stroke-miterlimit="10" stroke-linecap="round"/>
<path d="M154.618 102.964L154.626 102.979L153.664 103.13L153.369 104.095L153.357 104.089L152.905 103.225L151.896 103.223L152.575 102.526L152.249 101.563L153.127 102.008L153.933 101.411L153.798 102.379L154.618 102.964Z" fill="#FF9633"/>
<path d="M151.199 105.968L151.207 105.983L150.245 106.134L149.949 107.1L149.937 107.093L149.485 106.23L148.476 106.228L149.156 105.531L148.83 104.568L149.708 105.012L150.513 104.416L150.379 105.384L151.199 105.968Z" fill="#FF9633"/>
<path d="M147.779 108.973L147.787 108.988L146.825 109.139L146.529 110.104L146.518 110.098L146.066 109.234L145.057 109.232L145.733 108.538L145.407 107.575L146.285 108.02L147.091 107.423L146.956 108.391L147.779 108.973Z" fill="#FF9633"/>
<path d="M158.038 99.9592L158.046 99.9744L157.084 100.125L156.788 101.091L156.777 101.084L156.324 100.221L155.315 100.219L155.995 99.5216L155.669 98.5586L156.547 99.0034L157.352 98.4065L157.218 99.3746L158.038 99.9592Z" fill="#FF9633"/>
<path d="M161.458 96.9546L161.466 96.9699L160.504 97.1209L160.208 98.0862L160.196 98.0795L159.744 97.2161L158.735 97.214L159.415 96.5171L159.088 95.554L159.966 95.9989L160.772 95.402L160.637 96.3701L161.458 96.9546Z" fill="#FF9633"/>
<path d="M164.877 93.9501L164.885 93.9654L163.923 94.1164L163.627 95.0817L163.616 95.075L163.164 94.2116L162.155 94.2095L162.834 93.5126L162.508 92.5495L163.386 92.9944L164.192 92.3975L164.057 93.3656L164.877 93.9501Z" fill="#FF9633"/>
<path d="M186.085 131.438L182.523 127.384L188.766 121.9L190.546 123.926L185.902 128.007L187.683 130.034L186.085 131.438Z" fill="white"/>
<path d="M183.953 124.338L182.439 122.615L180.122 124.651L178.341 122.624L184.583 117.14L188.234 121.294L186.413 122.445L184.766 120.57L183.927 121.308L185.441 123.03L183.953 124.338Z" fill="white"/>
<path d="M179.77 119.578L178.256 117.855L175.939 119.891L174.159 117.864L180.401 112.379L184.051 116.534L182.231 117.685L180.584 115.81L179.745 116.547L181.258 118.27L179.77 119.578Z" fill="white"/>
<path d="M170.059 113.199L168.181 111.061L175.866 107.217L178.617 110.349L173.817 117.475L171.938 115.337L172.722 114.235L171.253 112.563L170.059 113.199ZM175.275 110.412L173.162 111.533L173.981 112.465L175.373 110.524L175.275 110.412Z" fill="white"/>
<path d="M168.107 110.977L166.148 108.748L167.276 106.284L166.893 105.849L165.035 107.481L163.255 105.454L169.497 99.9694L172.302 103.162C173.578 104.614 173.487 105.981 172.029 107.262C171.03 108.14 170.095 108.405 169.223 108.057L168.107 110.977ZM169.68 103.4L168.431 104.497L168.841 104.963C169.055 105.207 169.232 105.362 169.374 105.429C169.528 105.497 169.695 105.452 169.875 105.294L170.284 104.934C170.464 104.776 170.527 104.619 170.472 104.464C170.431 104.309 170.303 104.11 170.089 103.866L169.68 103.4Z" fill="white"/>
<path d="M170.55 128.006L167.833 130.393L166.052 128.366L172.294 122.881L174.075 124.908L171.528 127.146L171.564 127.186C171.776 127.024 171.965 126.918 172.132 126.866L175.072 126.043L176.996 128.232L172.594 129.406L170.798 133.767L168.875 131.578L170.195 128.569C170.267 128.409 170.397 128.235 170.585 128.046L170.55 128.006Z" fill="white"/>
<path d="M167.083 125.934L165.539 127.56C164.991 127.287 164.436 126.829 163.872 126.187C163.308 125.545 162.921 124.97 162.71 124.461C162.504 123.959 162.447 123.471 162.537 122.996C162.628 122.522 162.828 122.071 163.137 121.644C163.446 121.217 163.883 120.754 164.449 120.257C165.015 119.76 165.53 119.385 165.993 119.134C166.463 118.876 166.939 118.733 167.421 118.705C168.354 118.652 169.328 119.203 170.343 120.358C170.568 120.615 170.806 120.939 171.055 121.33C171.317 121.722 171.486 122.035 171.561 122.268L169.766 123.307C169.473 122.786 169.167 122.343 168.846 121.978C168.526 121.613 168.27 121.389 168.079 121.306C167.887 121.223 167.692 121.269 167.492 121.444L164.875 123.743C165.054 124.054 165.261 124.344 165.499 124.614C166.003 125.188 166.531 125.628 167.083 125.934Z" fill="white"/>
<path d="M158.931 120.261L165.173 114.776L166.954 116.803L160.712 122.288L158.931 120.261Z" fill="white"/>
<path d="M163.085 115.623L161.794 114.153L157.15 118.234L155.369 116.207L160.013 112.127L158.722 110.657L160.32 109.253L164.683 114.219L163.085 115.623Z" fill="white"/>
</g>
<g clipPath="url(#clip1_213_2165)">
<path d="M106.862 22.8307L106.324 23.303C106.696 23.7261 106.659 24.3694 106.242 24.7358C105.825 25.1022 105.182 25.056 104.81 24.6329L103.803 25.5177C104.175 25.9408 104.138 26.5841 103.721 26.9505C103.304 27.3169 102.662 27.2707 102.29 26.8476L101.283 27.7324C101.655 28.1555 101.618 28.7989 101.201 29.1653C100.784 29.5317 100.141 29.4855 99.7692 29.0623L98.7993 29.9146C100.6 31.9643 100.423 35.0639 98.4024 36.8389C96.3822 38.614 93.2917 38.3859 91.4907 36.3361L90.5207 37.1884C90.8925 37.6115 90.8556 38.2548 90.4386 38.6212C90.0216 38.9876 89.3789 38.9414 89.0071 38.5183L88.0001 39.4031C88.3719 39.8262 88.335 40.4695 87.918 40.8359C87.5009 41.2023 86.8582 41.1561 86.4865 40.733L85.4795 41.6178C85.8512 42.0409 85.8143 42.6842 85.3973 43.0506C84.9803 43.417 84.3407 43.3681 83.9689 42.945L82.9774 43.8162C84.6407 45.7093 84.6131 48.4937 83.007 50.3103L129.285 102.98C131.29 101.624 134.057 101.952 135.721 103.845L136.712 102.974C136.341 102.551 136.377 101.907 136.794 101.541C137.211 101.175 137.854 101.221 138.226 101.644L139.233 100.759C138.861 100.336 138.898 99.6928 139.315 99.3264C139.732 98.96 140.375 99.0062 140.747 99.4293L141.754 98.5445C141.382 98.1214 141.419 97.4781 141.836 97.1116C142.253 96.7452 142.895 96.7915 143.267 97.2146L144.234 96.365C142.433 94.3153 142.611 91.2157 144.631 89.4407C146.651 87.6657 149.748 87.8883 151.549 89.938L152.519 89.0858C152.147 88.6627 152.184 88.0194 152.601 87.653C153.018 87.2866 153.661 87.3328 154.032 87.7559L155.039 86.8711C154.668 86.448 154.705 85.8047 155.122 85.4383C155.539 85.0719 156.181 85.1181 156.553 85.5412L157.56 84.6564C157.188 84.2333 157.225 83.59 157.642 83.2236C158.059 82.8572 158.702 82.9034 159.074 83.3265L159.611 82.8542C157.81 80.8045 157.988 77.7049 160.008 75.9299L113.786 23.3227C111.759 25.1031 108.663 24.8805 106.862 22.8307Z" fill="#FFD850"/>
<path d="M134.619 94.8723C132.744 96.5198 129.869 96.3131 128.197 94.4106L91.3627 52.4879C89.6911 50.5854 89.8561 47.7081 91.7311 46.0606L108.418 31.399C110.29 29.7543 113.168 29.9582 114.839 31.8607L151.674 73.7834C153.345 75.6859 153.181 78.5632 151.306 80.2107L134.619 94.8723Z" stroke="#FF9633" stroke-width="1.5" stroke-miterlimit="10" stroke-linecap="round"/>
<path d="M115.767 32.9227L92.2935 53.5472" stroke="#FF9633" stroke-width="1.5" stroke-miterlimit="10" stroke-linecap="round"/>
<path d="M150.74 72.7268L127.267 93.3513" stroke="#FF9633" stroke-width="1.5" stroke-miterlimit="10" stroke-linecap="round"/>
<path d="M101.878 42.9378L101.886 42.9531L100.924 43.1041L100.628 44.0694L100.616 44.0627L100.164 43.1993L99.1553 43.1972L99.8348 42.5003L99.5086 41.5373L100.387 41.9821L101.192 41.3852L101.058 42.3533L101.878 42.9378Z" fill="#FF9633"/>
<path d="M98.4581 45.9424L98.466 45.9576L97.504 46.1087L97.2081 47.074L97.1968 47.0673L96.7446 46.2038L95.7357 46.2017L96.4151 45.5048L96.0889 44.5418L96.967 44.9866L97.7727 44.3898L97.638 45.3578L98.4581 45.9424Z" fill="#FF9633"/>
<path d="M95.0386 48.9469L95.0465 48.9621L94.0845 49.1132L93.7886 50.0784L93.7773 50.0718L93.3251 49.2083L92.3161 49.2062L92.9925 48.512L92.6663 47.549L93.5443 47.9938L94.3501 47.397L94.2154 48.365L95.0386 48.9469Z" fill="#FF9633"/>
<path d="M105.297 39.9333L105.305 39.9486L104.343 40.0996L104.047 41.0649L104.036 41.0582L103.584 40.1948L102.575 40.1927L103.254 39.4958L102.928 38.5327L103.806 38.9776L104.612 38.3807L104.477 39.3488L105.297 39.9333Z" fill="#FF9633"/>
<path d="M108.717 36.9288L108.725 36.9441L107.763 37.0951L107.467 38.0604L107.456 38.0537L107.003 37.1903L105.994 37.1882L106.674 36.4913L106.348 35.5282L107.226 35.973L108.031 35.3762L107.897 36.3443L108.717 36.9288Z" fill="#FF9633"/>
<path d="M112.136 33.9243L112.144 33.9395L111.182 34.0906L110.886 35.0559L110.875 35.0492L110.423 34.1858L109.414 34.1837L110.093 33.4867L109.767 32.5237L110.645 32.9685L111.451 32.3717L111.316 33.3398L112.136 33.9243Z" fill="#FF9633"/>
<path d="M141.155 83.3362L141.147 83.321L142.109 83.1699L142.405 82.2046L142.417 82.2113L142.869 83.0747L143.878 83.0768L143.198 83.7738L143.524 84.7368L142.646 84.292L141.841 84.8888L141.975 83.9207L141.155 83.3362Z" fill="#FF9633"/>
<path d="M144.575 80.3317L144.567 80.3164L145.529 80.1654L145.825 79.2001L145.836 79.2068L146.288 80.0702L147.297 80.0723L146.618 80.7692L146.944 81.7323L146.066 81.2874L145.26 81.8843L145.395 80.9162L144.575 80.3317Z" fill="#FF9633"/>
<path d="M147.994 77.3272L147.986 77.3119L148.948 77.1609L149.244 76.1956L149.256 76.2023L149.708 77.0657L150.717 77.0678L150.037 77.7647L150.364 78.7278L149.486 78.2829L148.68 78.8798L148.814 77.9117L147.994 77.3272Z" fill="#FF9633"/>
<path d="M137.736 86.3407L137.728 86.3255L138.69 86.1744L138.986 85.2091L138.997 85.2158L139.449 86.0793L140.458 86.0813L139.779 86.7783L140.105 87.7413L139.227 87.2965L138.421 87.8933L138.556 86.9253L137.736 86.3407Z" fill="#FF9633"/>
<path d="M134.316 89.3452L134.308 89.33L135.27 89.1789L135.566 88.2136L135.577 88.2203L136.03 89.0838L137.039 89.0859L136.359 89.7828L136.685 90.7458L135.807 90.301L135.002 90.8978L135.136 89.9298L134.316 89.3452Z" fill="#FF9633"/>
<path d="M130.897 92.3498L130.889 92.3345L131.851 92.1835L132.147 91.2182L132.158 91.2249L132.61 92.0883L133.619 92.0904L132.94 92.7873L133.266 93.7503L132.388 93.3055L131.582 93.9024L131.717 92.9343L130.897 92.3498Z" fill="#FF9633"/>
<path d="M139.753 73.9528L137.972 71.926L137.213 72.593L139.395 75.0757L137.797 76.4798L133.835 71.9703L140.077 66.4855L143.995 70.9444L142.174 72.0952L140.26 69.9164L139.421 70.6535L141.201 72.6803L139.753 73.9528Z" fill="white"/>
<path d="M133.344 71.4121L129.783 67.3586L136.025 61.8738L137.806 63.9006L133.161 67.9813L134.942 70.008L133.344 71.4121Z" fill="white"/>
<path d="M131.212 64.312L129.698 62.5893L127.381 64.6252L125.6 62.5985L131.843 57.1137L135.493 61.2686L133.672 62.4193L132.025 60.5446L131.186 61.2817L132.7 63.0045L131.212 64.312Z" fill="white"/>
<path d="M127.029 59.5519L125.516 57.8292L123.199 59.8651L121.418 57.8383L127.66 52.3536L131.311 56.5084L129.49 57.6592L127.843 55.7844L127.004 56.5216L128.518 58.2443L127.029 59.5519Z" fill="white"/>
<path d="M117.319 53.173L115.44 51.0347L123.125 47.1917L125.876 50.323L121.076 57.4495L119.197 55.3112L119.981 54.2094L118.512 52.5373L117.319 53.173ZM122.534 50.3865L120.421 51.5068L121.24 52.4391L122.632 50.498L122.534 50.3865Z" fill="white"/>
<path d="M115.367 50.9513L113.408 48.7219L114.535 46.2586L114.152 45.8229L112.295 47.4551L110.514 45.4284L116.756 39.9436L119.561 43.1358C120.837 44.5883 120.746 45.9552 119.288 47.2364C118.289 48.114 117.354 48.379 116.482 48.0315L115.367 50.9513ZM116.939 43.3745L115.691 44.4714L116.1 44.9376C116.314 45.1808 116.492 45.336 116.633 45.4031C116.787 45.4712 116.954 45.4262 117.134 45.2682L117.544 44.9084C117.723 44.7505 117.786 44.5936 117.732 44.4378C117.69 44.2829 117.562 44.0838 117.349 43.8406L116.939 43.3745Z" fill="white"/>
<path d="M131.917 80.1498L130.626 78.6804L125.982 82.761L124.201 80.7343L128.846 76.6536L127.555 75.1842L129.153 73.7801L133.516 78.7457L131.917 80.1498Z" fill="white"/>
<path d="M124.508 76.3297L122.727 74.3029L121.968 74.9699L124.15 77.4526L122.552 78.8567L118.589 74.3472L124.832 68.8624L128.75 73.3213L126.929 74.4721L125.015 72.2933L124.176 73.0304L125.956 75.0572L124.508 76.3297Z" fill="white"/>
<path d="M117.809 67.9799L115.092 70.3669L113.311 68.3401L119.554 62.8553L121.334 64.8821L118.788 67.1199L118.823 67.1604C119.035 66.9984 119.224 66.8918 119.392 66.8405L122.332 66.0171L124.255 68.206L119.853 69.38L118.057 73.7414L116.134 71.5525L117.454 68.543C117.526 68.3836 117.657 68.2095 117.844 68.0204L117.809 67.9799Z" fill="white"/>
<path d="M114.342 65.9079L112.798 67.5342C112.251 67.2607 111.695 66.803 111.131 66.1612C110.567 65.5194 110.18 64.9441 109.969 64.4352C109.764 63.9331 109.706 63.4448 109.797 62.9703C109.887 62.4958 110.087 62.045 110.396 61.6178C110.705 61.1907 111.142 60.7285 111.708 60.2312C112.274 59.7339 112.789 59.3595 113.252 59.108C113.722 58.8507 114.199 58.7077 114.681 58.6791C115.613 58.6258 116.587 59.1769 117.602 60.3321C117.828 60.5889 118.065 60.9129 118.315 61.3042C118.577 61.6965 118.745 62.0093 118.82 62.2425L117.025 63.2812C116.733 62.7601 116.426 62.3172 116.106 61.9524C115.785 61.5876 115.529 61.3635 115.338 61.2801C115.147 61.1967 114.951 61.2428 114.751 61.4183L112.135 63.7175C112.313 64.0278 112.521 64.3181 112.758 64.5883C113.263 65.1625 113.791 65.6024 114.342 65.9079Z" fill="white"/>
<path d="M106.19 60.2351L112.432 54.7503L114.213 56.7771L107.971 62.2618L106.19 60.2351Z" fill="white"/>
<path d="M110.344 55.597L109.053 54.1276L104.409 58.2083L102.628 56.1815L107.273 52.1009L105.982 50.6315L107.58 49.2274L111.943 54.1929L110.344 55.597Z" fill="white"/>
</g>
<g clipPath="url(#clip2_213_2165)">
<path d="M54.1211 -37.195L53.5836 -36.7228C53.9554 -36.2996 53.9185 -35.6563 53.5015 -35.2899C53.0845 -34.9235 52.4418 -34.9697 52.07 -35.3928L51.063 -34.508C51.4347 -34.0849 51.3979 -33.4416 50.9809 -33.0752C50.5638 -32.7088 49.9211 -32.755 49.5494 -33.1781L48.5424 -32.2933C48.9141 -31.8702 48.8772 -31.2269 48.4602 -30.8605C48.0432 -30.4941 47.4005 -30.5403 47.0287 -30.9634L46.0588 -30.1112C47.8598 -28.0614 47.6821 -24.9618 45.6619 -23.1868C43.6417 -21.4118 40.5512 -21.6399 38.7502 -23.6896L37.7802 -22.8374C38.152 -22.4143 38.1151 -21.771 37.6981 -21.4046C37.2811 -21.0381 36.6384 -21.0844 36.2666 -21.5075L35.2596 -20.6227C35.6314 -20.1996 35.5945 -19.5562 35.1775 -19.1898C34.7605 -18.8234 34.1178 -18.8696 33.746 -19.2928L32.739 -18.408C33.1107 -17.9848 33.0739 -17.3415 32.6569 -16.9751C32.2398 -16.6087 31.6002 -16.6576 31.2285 -17.0808L30.2369 -16.2095C31.9002 -14.3165 31.8726 -11.532 30.2665 -9.71548L76.544 42.9544C78.549 41.5981 81.317 41.9263 82.9803 43.8194L83.9719 42.9481C83.6001 42.525 83.637 41.8817 84.054 41.5153C84.471 41.1489 85.1137 41.1951 85.4855 41.6182L86.4925 40.7334C86.1207 40.3103 86.1576 39.667 86.5746 39.3006C86.9916 38.9342 87.6344 38.9804 88.0061 39.4035L89.0131 38.5187C88.6414 38.0956 88.6782 37.4523 89.0953 37.0859C89.5123 36.7195 90.155 36.7657 90.5267 37.1888L91.4936 36.3393C89.6926 34.2895 89.8703 31.1899 91.8905 29.4149C93.9107 27.6399 97.0074 27.8625 98.8084 29.9123L99.7783 29.0601C99.4066 28.6369 99.4434 27.9936 99.8605 27.6272C100.277 27.2608 100.92 27.307 101.292 27.7301L102.299 26.8453C101.927 26.4222 101.964 25.7789 102.381 25.4125C102.798 25.0461 103.441 25.0923 103.813 25.5154L104.82 24.6306C104.448 24.2075 104.485 23.5642 104.902 23.1978C105.319 22.8314 105.961 22.8776 106.333 23.3007L106.871 22.8285C105.07 20.7787 105.247 17.6791 107.268 15.9041L61.0452 -36.7031C59.0188 -34.9226 55.9221 -35.1453 54.1211 -37.195Z" fill="#FFD850"/>
<path d="M81.8782 34.8465C80.0032 36.494 77.1285 36.2873 75.457 34.3849L38.6222 -7.53788C36.9507 -9.44033 37.1156 -12.3177 38.9906 -13.9651L55.6774 -28.6268C57.5494 -30.2715 60.4271 -30.0675 62.0987 -28.1651L98.9334 13.7577C100.605 15.6601 100.44 18.5375 98.565 20.1849L81.8782 34.8465Z" stroke="#FF9633" stroke-width="1.5" stroke-miterlimit="10" stroke-linecap="round"/>
<path d="M97.9995 12.701L74.5261 33.3256" stroke="#FF9633" stroke-width="1.5" stroke-miterlimit="10" stroke-linecap="round"/>
<path d="M88.4148 23.3104L88.4069 23.2952L89.3689 23.1441L89.6647 22.1789L89.6761 22.1855L90.1282 23.049L91.1372 23.0511L90.4578 23.748L90.7839 24.711L89.9059 24.2662L89.1002 24.8631L89.2349 23.895L88.4148 23.3104Z" fill="#FF9633"/>
<path d="M91.8345 20.3059L91.8265 20.2907L92.7886 20.1396L93.0844 19.1743L93.0958 19.181L93.5479 20.0445L94.5569 20.0465L93.8775 20.7435L94.2036 21.7065L93.3256 21.2617L92.5199 21.8585L92.6546 20.8905L91.8345 20.3059Z" fill="#FF9633"/>
<path d="M95.2539 17.3014L95.246 17.2862L96.208 17.1351L96.5039 16.1698L96.5152 16.1765L96.9673 17.04L97.9763 17.042L97.2969 17.739L97.623 18.702L96.745 18.2572L95.9393 18.854L96.074 17.886L95.2539 17.3014Z" fill="#FF9633"/>
<path d="M84.9953 26.315L84.9874 26.2997L85.9494 26.1487L86.2453 25.1834L86.2567 25.1901L86.7088 26.0535L87.7178 26.0556L87.0383 26.7525L87.3645 27.7156L86.4865 27.2707L85.6808 27.8676L85.8155 26.8995L84.9953 26.315Z" fill="#FF9633"/>
<path d="M81.5757 29.3195L81.5677 29.3042L82.5298 29.1532L82.8256 28.1879L82.837 28.1946L83.2891 29.058L84.2981 29.0601L83.6187 29.757L83.9448 30.7201L83.0668 30.2752L82.2611 30.8721L82.3958 29.904L81.5757 29.3195Z" fill="#FF9633"/>
<path d="M78.1562 32.324L78.1483 32.3087L79.1103 32.1577L79.4062 31.1924L79.4176 31.1991L79.8697 32.0625L80.8787 32.0646L80.1992 32.7616L80.5254 33.7246L79.6474 33.2798L78.8417 33.8766L78.9764 32.9085L78.1562 32.324Z" fill="#FF9633"/>
<path d="M87.0127 13.927L85.232 11.9003L84.4729 12.5672L86.6543 15.05L85.0563 16.4541L81.0941 11.9445L87.3364 6.45978L91.2542 10.9187L89.4335 12.0694L87.5192 9.89064L86.6802 10.6278L88.461 12.6546L87.0127 13.927Z" fill="white"/>
<path d="M80.6036 11.3864L77.0421 7.33284L83.2844 1.84808L85.0652 3.87485L80.4209 7.95551L82.2017 9.98227L80.6036 11.3864Z" fill="white"/>
<path d="M78.4713 4.28628L76.9576 2.56353L74.6405 4.59947L72.8597 2.57271L79.1021 -2.91205L82.7527 1.24282L80.932 2.39357L79.2848 0.518814L78.4458 1.25597L79.9595 2.97872L78.4713 4.28628Z" fill="white"/>
<path d="M74.2889 -0.473849L72.7753 -2.1966L70.4581 -0.160661L68.6773 -2.18743L74.9197 -7.67218L78.5703 -3.51731L76.7496 -2.36656L75.1024 -4.24132L74.2634 -3.50417L75.7771 -1.78141L74.2889 -0.473849Z" fill="white"/>
<path d="M79.177 20.124L77.8859 18.6546L73.2416 22.7353L71.4608 20.7085L76.1051 16.6278L74.8141 15.1584L76.4121 13.7543L80.775 18.7199L79.177 20.124Z" fill="white"/>
<path d="M71.7676 16.3039L69.9868 14.2771L69.2278 14.9441L71.4092 17.4269L69.8112 18.831L65.8489 14.3214L72.0913 8.83667L76.009 13.2956L74.1884 14.4463L72.274 12.2675L71.4351 13.0047L73.2159 15.0315L71.7676 16.3039Z" fill="white"/>
<path d="M65.0683 7.95414L62.3516 10.3411L60.5709 8.31434L66.8132 2.82959L68.594 4.85636L66.0471 7.09414L66.0827 7.13467C66.2944 6.97267 66.4839 6.86604 66.6512 6.81478L69.5913 5.99135L71.5145 8.18025L67.1127 9.35429L65.3167 13.7157L63.3934 11.5268L64.7136 8.51725C64.7859 8.35789 64.9161 8.1837 65.1039 7.99468L65.0683 7.95414Z" fill="white"/>
<path d="M61.6018 5.88214L60.0574 7.50845C59.5103 7.23493 58.9548 6.77727 58.3909 6.13547C57.827 5.49366 57.4395 4.91833 57.2283 4.40948C57.0232 3.90738 56.9658 3.41908 57.0562 2.94457C57.1466 2.47006 57.3464 2.01923 57.6554 1.59208C57.9644 1.16493 58.4019 0.70271 58.9679 0.205425C59.5339 -0.291859 60.0485 -0.666249 60.5119 -0.917746C60.9819 -1.17509 61.458 -1.31808 61.9402 -1.3467C62.8728 -1.39991 63.8466 -0.848884 64.8617 0.306373C65.0872 0.563096 65.3247 0.887136 65.5742 1.27849C65.8363 1.67075 66.0049 1.9835 66.08 2.21675L64.2848 3.25541C63.9922 2.73437 63.6856 2.29144 63.365 1.92662C63.0445 1.56181 62.7886 1.33771 62.5974 1.25434C62.4061 1.17097 62.2106 1.21704 62.0109 1.39256L59.3941 3.69176C59.5723 4.00205 59.7801 4.29231 60.0176 4.56254C60.5221 5.13679 61.0502 5.57666 61.6018 5.88214Z" fill="white"/>
<path d="M53.4495 0.209302L59.6919 -5.27545L61.4727 -3.24869L55.2303 2.23607L53.4495 0.209302Z" fill="white"/>
</g>
<g clipPath="url(#clip3_213_2165)">
<path d="M87.4837 80.1137L86.9462 80.586C87.3179 81.0091 87.2811 81.6524 86.864 82.0188C86.447 82.3852 85.8043 82.339 85.4325 81.9159L84.4255 82.8007C84.7973 83.2238 84.7604 83.8671 84.3434 84.2335C83.9264 84.5999 83.2837 84.5537 82.9119 84.1306L81.9049 85.0154C82.2767 85.4385 82.2398 86.0818 81.8228 86.4482C81.4058 86.8146 80.763 86.7684 80.3913 86.3453L79.4213 87.1975C81.2223 89.2473 81.0447 92.3469 79.0244 94.1219C77.0042 95.8969 73.9137 95.6689 72.1127 93.6191L71.1428 94.4713C71.5146 94.8944 71.4777 95.5378 71.0607 95.9042C70.6436 96.2706 70.0009 96.2244 69.6292 95.8012L68.6222 96.686C68.9939 97.1092 68.9571 97.7525 68.54 98.1189C68.123 98.4853 67.4803 98.4391 67.1085 98.016L66.1015 98.9008C66.4733 99.3239 66.4364 99.9672 66.0194 100.334C65.6024 100.7 64.9628 100.651 64.591 100.228L63.5994 101.099C65.2627 102.992 65.2351 105.777 63.6291 107.593L109.907 160.263C111.912 158.907 114.68 159.235 116.343 161.128L117.334 160.257C116.963 159.834 117 159.19 117.417 158.824C117.834 158.458 118.476 158.504 118.848 158.927L119.855 158.042C119.483 157.619 119.52 156.976 119.937 156.609C120.354 156.243 120.997 156.289 121.369 156.712L122.376 155.827C122.004 155.404 122.041 154.761 122.458 154.395C122.875 154.028 123.518 154.074 123.889 154.498L124.856 153.648C123.055 151.598 123.233 148.499 125.253 146.724C127.273 144.949 130.37 145.171 132.171 147.221L133.141 146.369C132.769 145.946 132.806 145.302 133.223 144.936C133.64 144.57 134.283 144.616 134.654 145.039L135.662 144.154C135.29 143.731 135.327 143.088 135.744 142.721C136.161 142.355 136.803 142.401 137.175 142.824L138.182 141.939C137.81 141.516 137.847 140.873 138.264 140.507C138.681 140.14 139.324 140.186 139.696 140.609L140.233 140.137C138.432 138.087 138.61 134.988 140.63 133.213L94.4077 80.6056C92.3813 82.3861 89.2846 82.1635 87.4837 80.1137Z" fill="#FFD850"/>
<path d="M115.241 152.155C113.366 153.803 110.491 153.596 108.82 151.694L71.9848 109.771C70.3132 107.868 70.4781 104.991 72.3532 103.344L89.04 88.682C90.9119 87.0372 93.7897 87.2412 95.4612 89.1436L132.296 131.066C133.968 132.969 133.803 135.846 131.928 137.494L115.241 152.155Z" stroke="#FF9633" stroke-width="1.5" stroke-miterlimit="10" stroke-linecap="round"/>
<path d="M96.3889 90.2057L72.9155 110.83" stroke="#FF9633" stroke-width="1.5" stroke-miterlimit="10" stroke-linecap="round"/>
<path d="M82.4998 100.221L82.5078 100.236L81.5457 100.387L81.2499 101.352L81.2385 101.346L80.7864 100.482L79.7774 100.48L80.4568 99.7832L80.1307 98.8202L81.0087 99.265L81.8144 98.6682L81.6797 99.6363L82.4998 100.221Z" fill="#FF9633"/>
<path d="M79.0802 103.225L79.0881 103.241L78.1261 103.392L77.8302 104.357L77.8188 104.35L77.3667 103.487L76.3577 103.485L77.0372 102.788L76.711 101.825L77.589 102.27L78.3947 101.673L78.26 102.641L79.0802 103.225Z" fill="#FF9633"/>
<path d="M75.6606 106.23L75.6686 106.245L74.7065 106.396L74.4107 107.361L74.3993 107.355L73.9472 106.491L72.9382 106.489L73.6146 105.795L73.2884 104.832L74.1664 105.277L74.9721 104.68L74.8374 105.648L75.6606 106.23Z" fill="#FF9633"/>
<path d="M85.9193 97.2163L85.9272 97.2315L84.9652 97.3826L84.6693 98.3479L84.658 98.3412L84.2058 97.4777L83.1968 97.4757L83.8763 96.7787L83.5501 95.8157L84.4281 96.2605L85.2338 95.6637L85.0991 96.6317L85.9193 97.2163Z" fill="#FF9633"/>
<path d="M89.339 94.2118L89.3469 94.227L88.3849 94.3781L88.089 95.3434L88.0776 95.3367L87.6255 94.4732L86.6165 94.4712L87.296 93.7742L86.9698 92.8112L87.8478 93.256L88.6535 92.6592L88.5188 93.6272L89.339 94.2118Z" fill="#FF9633"/>
<path d="M92.7584 91.2073L92.7663 91.2225L91.8043 91.3736L91.5084 92.3388L91.4971 92.3322L91.0449 91.4687L90.036 91.4666L90.7154 90.7697L90.3892 89.8067L91.2672 90.2515L92.073 89.6546L91.9383 90.6227L92.7584 91.2073Z" fill="#FF9633"/>
<path d="M120.375 131.236L118.595 129.209L117.835 129.876L120.017 132.359L118.419 133.763L114.457 129.253L120.699 123.768L124.617 128.227L122.796 129.378L120.882 127.199L120.043 127.937L121.824 129.963L120.375 131.236Z" fill="white"/>
<path d="M113.966 128.695L110.405 124.642L116.647 119.157L118.428 121.184L113.783 125.264L115.564 127.291L113.966 128.695Z" fill="white"/>
<path d="M111.834 121.595L110.32 119.872L108.003 121.908L106.222 119.881L112.465 114.397L116.115 118.552L114.295 119.702L112.647 117.828L111.808 118.565L113.322 120.287L111.834 121.595Z" fill="white"/>
<path d="M107.651 116.835L106.138 115.112L103.821 117.148L102.04 115.121L108.282 109.637L111.933 113.791L110.112 114.942L108.465 113.067L107.626 113.805L109.14 115.527L107.651 116.835Z" fill="white"/>
<path d="M97.9408 110.456L96.0621 108.318L103.747 104.475L106.498 107.606L101.698 114.732L99.8195 112.594L100.604 111.492L99.1344 109.82L97.9408 110.456ZM103.156 107.669L101.043 108.79L101.862 109.722L103.254 107.781L103.156 107.669Z" fill="white"/>
<path d="M95.9887 108.234L94.0298 106.005L95.1574 103.542L94.7746 103.106L92.9168 104.738L91.1361 102.711L97.3784 97.2266L100.183 100.419C101.459 101.871 101.368 103.238 99.9102 104.519C98.9114 105.397 97.9762 105.662 97.1045 105.314L95.9887 108.234ZM97.5612 100.657L96.3127 101.754L96.7223 102.221C96.936 102.464 97.1136 102.619 97.2552 102.686C97.4094 102.754 97.5763 102.709 97.7561 102.551L98.1656 102.191C98.3454 102.033 98.4081 101.877 98.3538 101.721C98.3121 101.566 98.1844 101.367 97.9707 101.124L97.5612 100.657Z" fill="white"/>
<path d="M98.4309 125.263L95.7142 127.65L93.9334 125.623L100.176 120.138L101.957 122.165L99.4097 124.403L99.4453 124.443C99.6569 124.281 99.8464 124.175 100.014 124.123L102.954 123.3L104.877 125.489L100.475 126.663L98.6792 131.024L96.756 128.835L98.0761 125.826C98.1485 125.667 98.2786 125.492 98.4665 125.303L98.4309 125.263Z" fill="white"/>
<path d="M94.9643 123.191L93.4199 124.817C92.8728 124.544 92.3173 124.086 91.7534 123.444C91.1895 122.802 90.802 122.227 90.5909 121.718C90.3857 121.216 90.3283 120.728 90.4188 120.253C90.5092 119.779 90.7089 119.328 91.0179 118.901C91.327 118.474 91.7645 118.011 92.3305 117.514C92.8964 117.017 93.4111 116.642 93.8745 116.391C94.3445 116.134 94.8206 115.991 95.3028 115.962C96.2353 115.909 97.2092 116.46 98.2242 117.615C98.4498 117.872 98.6873 118.196 98.9367 118.587C99.1988 118.979 99.3674 119.292 99.4426 119.525L97.6473 120.564C97.3547 120.043 97.0481 119.6 96.7276 119.235C96.407 118.871 96.1511 118.646 95.9599 118.563C95.7687 118.48 95.5732 118.526 95.3734 118.701L92.7566 121C92.9348 121.311 93.1427 121.601 93.3801 121.871C93.8847 122.446 94.4127 122.885 94.9643 123.191Z" fill="white"/>
<path d="M86.8121 117.518L93.0544 112.033L94.8352 114.06L88.5929 119.545L86.8121 117.518Z" fill="white"/>
<path d="M90.9665 112.88L89.6755 111.411L85.0311 115.491L83.2504 113.464L87.8947 109.384L86.6036 107.914L88.2017 106.51L92.5646 111.476L90.9665 112.88Z" fill="white"/>
</g>
<g clipPath="url(#clip4_213_2165)">
<path d="M34.7432 20.0879L34.2057 20.5602C34.5774 20.9833 34.5406 21.6266 34.1236 21.993C33.7065 22.3594 33.0638 22.3132 32.6921 21.8901L31.6851 22.7749C32.0568 23.198 32.0199 23.8413 31.6029 24.2077C31.1859 24.5742 30.5432 24.5279 30.1714 24.1048L29.1644 24.9896C29.5362 25.4127 29.4993 26.0561 29.0823 26.4225C28.6653 26.7889 28.0226 26.7427 27.6508 26.3195L26.6809 27.1718C28.4818 29.2215 28.3042 32.3211 26.284 34.0961C24.2638 35.8712 21.1732 35.6431 19.3723 33.5933L18.4023 34.4456C18.7741 34.8687 18.7372 35.512 18.3202 35.8784C17.9032 36.2448 17.2605 36.1986 16.8887 35.7755L15.8817 36.6603C16.2534 37.0834 16.2166 37.7267 15.7996 38.0931C15.3825 38.4595 14.7398 38.4133 14.3681 37.9902L13.3611 38.875C13.7328 39.2981 13.6959 39.9414 13.2789 40.3078C12.8619 40.6742 12.2223 40.6253 11.8505 40.2022L10.859 41.0734C12.5222 42.9665 12.4946 45.7509 10.8886 47.5675L57.1661 100.237C59.1711 98.8811 61.9391 99.2093 63.6024 101.102L64.5939 100.231C64.2222 99.808 64.2591 99.1647 64.6761 98.7983C65.0931 98.4319 65.7358 98.4781 66.1076 98.9012L67.1146 98.0164C66.7428 97.5933 66.7797 96.95 67.1967 96.5836C67.6137 96.2172 68.2564 96.2634 68.6282 96.6865L69.6352 95.8017C69.2634 95.3786 69.3003 94.7353 69.7173 94.3689C70.1343 94.0024 70.7771 94.0487 71.1488 94.4718L72.1157 93.6223C70.3147 91.5725 70.4924 88.4729 72.5126 86.6979C74.5328 84.9229 77.6295 85.1455 79.4304 87.1952L80.4004 86.343C80.0286 85.9199 80.0655 85.2766 80.4825 84.9102C80.8995 84.5438 81.5423 84.59 81.914 85.0131L82.921 84.1283C82.5493 83.7052 82.5861 83.0619 83.0032 82.6955C83.4202 82.3291 84.0629 82.3753 84.4346 82.7984L85.4417 81.9136C85.0699 81.4905 85.1068 80.8472 85.5238 80.4808C85.9408 80.1144 86.5835 80.1606 86.9553 80.5837L87.4928 80.1114C85.6918 78.0617 85.8694 74.9621 87.8897 73.1871L41.6672 20.5799C39.6408 22.3603 36.5442 22.1377 34.7432 20.0879Z" fill="#FFD850"/>
<path d="M62.5003 92.1295C60.6252 93.777 57.7506 93.5703 56.079 91.6678L19.2443 49.7451C17.5727 47.8426 17.7377 44.9653 19.6127 43.3178L36.2995 28.6562C38.1715 27.0115 41.0492 27.2154 42.7208 29.1179L79.5555 71.0406C81.2271 72.9431 81.0621 75.8204 79.1871 77.4679L62.5003 92.1295Z" stroke="#FF9633" stroke-width="1.5" stroke-miterlimit="10" stroke-linecap="round"/>
<path d="M43.6484 30.1799L20.1751 50.8044" stroke="#FF9633" stroke-width="1.5" stroke-miterlimit="10" stroke-linecap="round"/>
<path d="M78.6216 69.984L55.1482 90.6085" stroke="#FF9633" stroke-width="1.5" stroke-miterlimit="10" stroke-linecap="round"/>
<path d="M29.7594 40.1951L29.7673 40.2103L28.8053 40.3614L28.5094 41.3266L28.498 41.32L28.0459 40.4565L27.0369 40.4544L27.7164 39.7575L27.3902 38.7945L28.2682 39.2393L29.0739 38.6424L28.9392 39.6105L29.7594 40.1951Z" fill="#FF9633"/>
<path d="M26.3397 43.1996L26.3476 43.2148L25.3856 43.3659L25.0897 44.3312L25.0784 44.3245L24.6262 43.461L23.6173 43.4589L24.2967 42.762L23.9705 41.799L24.8485 42.2438L25.6543 41.647L25.5196 42.615L26.3397 43.1996Z" fill="#FF9633"/>
<path d="M22.9202 46.2041L22.9281 46.2193L21.9661 46.3704L21.6702 47.3356L21.6588 47.329L21.2067 46.4655L20.1977 46.4634L20.8741 45.7692L20.5479 44.8062L21.4259 45.251L22.2316 44.6542L22.097 45.6222L22.9202 46.2041Z" fill="#FF9633"/>
<path d="M33.1788 37.1905L33.1867 37.2058L32.2247 37.3568L31.9288 38.3221L31.9175 38.3154L31.4653 37.452L30.4564 37.4499L31.1358 36.753L30.8097 35.7899L31.6877 36.2348L32.4934 35.6379L32.3587 36.606L33.1788 37.1905Z" fill="#FF9633"/>
<path d="M36.5985 34.186L36.6064 34.2013L35.6444 34.3523L35.3485 35.3176L35.3372 35.3109L34.885 34.4475L33.876 34.4454L34.5555 33.7485L34.2293 32.7854L35.1073 33.2303L35.913 32.6334L35.7783 33.6015L36.5985 34.186Z" fill="#FF9633"/>
<path d="M40.0179 31.1815L40.0258 31.1968L39.0638 31.3478L38.7679 32.3131L38.7566 32.3064L38.3045 31.443L37.2955 31.4409L37.9749 30.7439L37.6488 29.7809L38.5268 30.2257L39.3325 29.6289L39.1978 30.597L40.0179 31.1815Z" fill="#FF9633"/>
<path d="M69.0368 80.5934L69.0289 80.5782L69.991 80.4271L70.2868 79.4618L70.2982 79.4685L70.7503 80.332L71.7593 80.334L71.0798 81.031L71.406 81.994L70.528 81.5492L69.7223 82.146L69.857 81.1779L69.0368 80.5934Z" fill="#FF9633"/>
<path d="M72.4565 77.5889L72.4486 77.5736L73.4106 77.4226L73.7065 76.4573L73.7178 76.464L74.17 77.3274L75.179 77.3295L74.4995 78.0265L74.8257 78.9895L73.9477 78.5447L73.142 79.1415L73.2767 78.1734L72.4565 77.5889Z" fill="#FF9633"/>
<path d="M75.876 74.5844L75.868 74.5691L76.8301 74.4181L77.1259 73.4528L77.1373 73.4595L77.5894 74.3229L78.5984 74.325L77.919 75.0219L78.2451 75.985L77.3671 75.5401L76.5614 76.137L76.6961 75.1689L75.876 74.5844Z" fill="#FF9633"/>
<path d="M65.6174 83.5979L65.6095 83.5827L66.5715 83.4316L66.8674 82.4663L66.8787 82.473L67.3309 83.3365L68.3398 83.3385L67.6604 84.0355L67.9866 84.9985L67.1086 84.5537L66.3029 85.1505L66.4375 84.1825L65.6174 83.5979Z" fill="#FF9633"/>
<path d="M62.1977 86.6024L62.1898 86.5872L63.1518 86.4361L63.4477 85.4708L63.4591 85.4775L63.9112 86.341L64.9202 86.3431L64.2407 87.04L64.5669 88.003L63.6889 87.5582L62.8832 88.155L63.0179 87.187L62.1977 86.6024Z" fill="#FF9633"/>
<path d="M58.7783 89.607L58.7704 89.5917L59.7324 89.4407L60.0283 88.4754L60.0396 88.4821L60.4918 89.3455L61.5007 89.3476L60.8213 90.0445L61.1474 91.0076L60.2694 90.5627L59.4637 91.1596L59.5984 90.1915L58.7783 89.607Z" fill="#FF9633"/>
<path d="M67.6348 71.21L65.854 69.1832L65.095 69.8502L67.2764 72.3329L65.6784 73.737L61.7161 69.2275L67.9585 63.7427L71.8762 68.2016L70.0556 69.3524L68.1412 67.1736L67.3023 67.9108L69.083 69.9375L67.6348 71.21Z" fill="white"/>
<path d="M61.2257 68.6693L57.6641 64.6158L63.9065 59.131L65.6873 61.1578L61.043 65.2385L62.8237 67.2652L61.2257 68.6693Z" fill="white"/>
<path d="M59.0934 61.5692L57.5797 59.8465L55.2625 61.8824L53.4818 59.8557L59.7241 54.3709L63.3747 58.5258L61.5541 59.6765L59.9069 57.8018L59.0679 58.5389L60.5816 60.2617L59.0934 61.5692Z" fill="white"/>
<path d="M54.911 56.8091L53.3973 55.0864L51.0802 57.1223L49.2994 55.0955L55.5417 49.6108L59.1924 53.7656L57.3717 54.9164L55.7245 53.0416L54.8855 53.7788L56.3992 55.5015L54.911 56.8091Z" fill="white"/>
<path d="M45.2003 50.4302L43.3216 48.2919L51.0064 44.4489L53.7577 47.5802L48.9578 54.7067L47.0791 52.5684L47.8631 51.4666L46.3939 49.7945L45.2003 50.4302ZM50.4154 47.6437L48.3025 48.764L49.1217 49.6963L50.5134 47.7552L50.4154 47.6437Z" fill="white"/>
<path d="M43.2482 48.2085L41.2893 45.9791L42.417 43.5158L42.0341 43.0801L40.1764 44.7123L38.3956 42.6856L44.6379 37.2008L47.4427 40.393C48.7189 41.8455 48.6279 43.2124 47.1697 44.4936C46.1709 45.3712 45.2357 45.6362 44.364 45.2887L43.2482 48.2085ZM44.8207 40.6317L43.5722 41.7286L43.9818 42.1948C44.1955 42.438 44.3731 42.5932 44.5147 42.6603C44.6689 42.7284 44.8359 42.6834 45.0156 42.5254L45.4251 42.1656C45.6049 42.0077 45.6677 41.8508 45.6134 41.695C45.5717 41.5401 45.444 41.341 45.2303 41.0978L44.8207 40.6317Z" fill="white"/>
<path d="M59.7991 77.407L58.508 75.9376L53.8637 80.0182L52.0829 77.9915L56.7272 73.9108L55.4361 72.4414L57.0342 71.0373L61.3971 76.0029L59.7991 77.407Z" fill="white"/>
<path d="M52.3897 73.5869L50.6089 71.5601L49.8498 72.2271L52.0313 74.7098L50.4333 76.1139L46.471 71.6044L52.7134 66.1196L56.6311 70.5785L54.8105 71.7293L52.8961 69.5505L52.0571 70.2876L53.8379 72.3144L52.3897 73.5869Z" fill="white"/>
<path d="M45.6904 65.2371L42.9737 67.6241L41.1929 65.5973L47.4353 60.1125L49.2161 62.1393L46.6692 64.3771L46.7048 64.4176C46.9164 64.2556 47.1059 64.149 47.2733 64.0977L50.2133 63.2743L52.1366 65.4632L47.7347 66.6372L45.9387 70.9986L44.0155 68.8097L45.3356 65.8002C45.408 65.6409 45.5381 65.4667 45.726 65.2776L45.6904 65.2371Z" fill="white"/>
<path d="M42.2238 63.1651L40.6795 64.7914C40.1324 64.5179 39.5769 64.0602 39.013 63.4184C38.449 62.7766 38.0615 62.2013 37.8504 61.6924C37.6452 61.1903 37.5879 60.702 37.6783 60.2275C37.7687 59.753 37.9684 59.3022 38.2775 58.875C38.5865 58.4479 39.024 57.9857 39.59 57.4884C40.1559 56.9911 40.6706 56.6167 41.134 56.3652C41.604 56.1079 42.0801 55.9649 42.5623 55.9363C43.4949 55.8831 44.4687 56.4341 45.4837 57.5893C45.7093 57.8461 45.9468 58.1701 46.1963 58.5614C46.4583 58.9537 46.6269 59.2665 46.7021 59.4997L44.9068 60.5384C44.6142 60.0173 44.3076 59.5744 43.9871 59.2096C43.6666 58.8448 43.4107 58.6207 43.2194 58.5373C43.0282 58.4539 42.8327 58.5 42.6329 58.6755L40.0161 60.9747C40.1944 61.285 40.4022 61.5753 40.6396 61.8455C41.1442 62.4198 41.6723 62.8596 42.2238 63.1651Z" fill="white"/>
<path d="M34.0716 57.4923L40.314 52.0075L42.0948 54.0343L35.8524 59.519L34.0716 57.4923Z" fill="white"/>
<path d="M38.2261 52.8542L36.935 51.3848L32.2907 55.4655L30.5099 53.4387L35.1542 49.3581L33.8631 47.8887L35.4612 46.4846L39.8241 51.4501L38.2261 52.8542Z" fill="white"/>
</g>
<g clipPath="url(#clip5_213_2165)">
<path d="M-17.9975 -39.9378L-18.535 -39.4656C-18.1633 -39.0424 -18.2001 -38.3991 -18.6172 -38.0327C-19.0342 -37.6663 -19.6769 -37.7125 -20.0487 -38.1356L-21.0557 -37.2508C-20.6839 -36.8277 -20.7208 -36.1844 -21.1378 -35.818C-21.5548 -35.4516 -22.1975 -35.4978 -22.5693 -35.9209L-23.5763 -35.0361C-23.2045 -34.613 -23.2414 -33.9697 -23.6584 -33.6033C-24.0754 -33.2369 -24.7182 -33.2831 -25.0899 -33.7062L-26.0599 -32.854C-24.2589 -30.8042 -24.4365 -27.7046 -26.4568 -25.9296C-28.477 -24.1546 -31.5675 -24.3827 -33.3685 -26.4324L-34.3384 -25.5802C-33.9666 -25.1571 -34.0035 -24.5138 -34.4205 -24.1473C-34.8376 -23.7809 -35.4803 -23.8272 -35.852 -24.2503L-36.859 -23.3655C-36.4873 -22.9424 -36.5242 -22.299 -36.9412 -21.9326C-37.3582 -21.5662 -38.0009 -21.6124 -38.3727 -22.0356L-39.3797 -21.1508C-39.0079 -20.7276 -39.0448 -20.0843 -39.4618 -19.7179C-39.8788 -19.3515 -40.5184 -19.4004 -40.8902 -19.8236L-41.8818 -18.9523C-40.2185 -17.0593 -40.2461 -14.2748 -41.8521 -12.4583L4.42538 40.2116C6.43039 38.8553 9.19835 39.1835 10.8616 41.0766L11.8532 40.2053C11.4815 39.7822 11.5183 39.1389 11.9353 38.7725C12.3524 38.4061 12.9951 38.4523 13.3668 38.8754L14.3738 37.9906C14.0021 37.5675 14.039 36.9242 14.456 36.5578C14.873 36.1914 15.5157 36.2376 15.8875 36.6607L16.8945 35.7759C16.5227 35.3528 16.5596 34.7095 16.9766 34.3431C17.3936 33.9767 18.0363 34.0229 18.4081 34.446L19.375 33.5965C17.574 31.5467 17.7516 28.4471 19.7718 26.6721C21.7921 24.8971 24.8887 25.1197 26.6897 27.1695L27.6597 26.3173C27.2879 25.8941 27.3248 25.2508 27.7418 24.8844C28.1588 24.518 28.8015 24.5642 29.1733 24.9873L30.1803 24.1025C29.8085 23.6794 29.8454 23.0361 30.2624 22.6697C30.6795 22.3033 31.3222 22.3495 31.6939 22.7726L32.7009 21.8878C32.3292 21.4647 32.366 20.8214 32.7831 20.455C33.2001 20.0886 33.8428 20.1348 34.2146 20.5579L34.752 20.0857C32.9511 18.0359 33.1287 14.9363 35.1489 13.1613L-11.0735 -39.4459C-13.0999 -37.6654 -16.1966 -37.8881 -17.9975 -39.9378Z" fill="#FFD850"/>
<path d="M9.75955 32.1037C7.88452 33.7512 5.00986 33.5445 3.33831 31.6421L-33.4964 -10.2807C-35.168 -12.1831 -35.0031 -15.0605 -33.128 -16.7079L-16.4412 -31.3696C-14.5693 -33.0143 -11.6915 -32.8103 -10.02 -30.9079L26.8148 11.0149C28.4863 12.9173 28.3214 15.7947 26.4464 17.4421L9.75955 32.1037Z" stroke="#FF9633" stroke-width="1.5" stroke-miterlimit="10" stroke-linecap="round"/>
<path d="M25.8809 9.95825L2.40747 30.5828" stroke="#FF9633" stroke-width="1.5" stroke-miterlimit="10" stroke-linecap="round"/>
<path d="M16.2961 20.5676L16.2882 20.5524L17.2502 20.4013L17.5461 19.4361L17.5574 19.4427L18.0096 20.3062L19.0186 20.3083L18.3391 21.0052L18.6653 21.9682L17.7873 21.5234L16.9816 22.1203L17.1163 21.1522L16.2961 20.5676Z" fill="#FF9633"/>
<path d="M19.7158 17.5631L19.7079 17.5479L20.6699 17.3968L20.9658 16.4315L20.9771 16.4382L21.4293 17.3017L22.4382 17.3037L21.7588 18.0007L22.0849 18.9637L21.2069 18.5189L20.4012 19.1157L20.5359 18.1477L19.7158 17.5631Z" fill="#FF9633"/>
<path d="M23.1352 14.5586L23.1273 14.5434L24.0893 14.3923L24.3852 13.427L24.3966 13.4337L24.8487 14.2972L25.8577 14.2992L25.1782 14.9962L25.5044 15.9592L24.6264 15.5144L23.8207 16.1112L23.9554 15.1432L23.1352 14.5586Z" fill="#FF9633"/>
<path d="M12.8767 23.5722L12.8688 23.5569L13.8308 23.4059L14.1267 22.4406L14.138 22.4473L14.5901 23.3107L15.5991 23.3128L14.9197 24.0097L15.2458 24.9728L14.3678 24.5279L13.5621 25.1248L13.6968 24.1567L12.8767 23.5722Z" fill="#FF9633"/>
<path d="M9.45702 26.5767L9.44909 26.5614L10.4111 26.4104L10.707 25.4451L10.7183 25.4518L11.1705 26.3152L12.1794 26.3173L11.5 27.0142L11.8262 27.9773L10.9482 27.5324L10.1425 28.1293L10.2771 27.1612L9.45702 26.5767Z" fill="#FF9633"/>
<path d="M6.03758 29.5812L6.02966 29.5659L6.99168 29.4149L7.28755 28.4496L7.2989 28.4563L7.75103 29.3197L8.76001 29.3218L8.08058 30.0188L8.40672 30.9818L7.52872 30.537L6.72302 31.1338L6.85771 30.1657L6.03758 29.5812Z" fill="#FF9633"/>
<path d="M14.8941 11.1842L13.1133 9.15746L12.3542 9.8244L14.5357 12.3072L12.9377 13.7113L8.97541 9.20173L15.2178 3.71698L19.1355 8.17586L17.3149 9.32662L15.4005 7.14784L14.5615 7.88499L16.3423 9.91176L14.8941 11.1842Z" fill="white"/>
<path d="M8.48497 8.64357L4.9234 4.59004L11.1658 -0.894714L12.9466 1.13205L8.30223 5.21271L10.083 7.23947L8.48497 8.64357Z" fill="white"/>
<path d="M6.35265 1.54349L4.83898 -0.179267L2.52182 1.85667L0.741031 -0.170093L6.9834 -5.65485L10.634 -1.49997L8.81336 -0.349224L7.16614 -2.22398L6.32716 -1.48683L7.84083 0.23592L6.35265 1.54349Z" fill="white"/>
<path d="M7.05833 17.3812L5.76727 15.9118L1.12294 19.9925L-0.65784 17.9657L3.98648 13.885L2.69541 12.4156L4.29346 11.0115L8.65638 15.9771L7.05833 17.3812Z" fill="white"/>
<path d="M-0.351022 13.5611L-2.13181 11.5344L-2.89088 12.2013L-0.709419 14.6841L-2.30746 16.0882L-6.26971 11.5786L-0.0273438 6.09387L3.89038 10.5528L2.06974 11.7035L0.155396 9.52474L-0.683578 10.2619L1.09721 12.2887L-0.351022 13.5611Z" fill="white"/>
</g>
</g>
<defs>
<linearGradient id="paint0_linear_213_2165" x1="-55.5316" y1="195.25" x2="248.431" y2="29.4529" gradientUnits="userSpaceOnUse">
<stop stop-color="#353C43"/>
<stop offset="1" stop-color="#46515C" stop-opacity="0"/>
</linearGradient>
<clipPath id="clip0_213_2165">
<rect width="79.9041" height="40.9265" fill="white" transform="translate(163.26 79.6432) rotate(48.6964)"/>
</clipPath>
<clipPath id="clip1_213_2165">
<rect width="79.9041" height="40.9265" fill="white" transform="translate(110.519 19.6174) rotate(48.6964)"/>
</clipPath>
<clipPath id="clip2_213_2165">
<rect width="79.9041" height="40.9265" fill="white" transform="translate(57.7783 -40.4084) rotate(48.6964)"/>
</clipPath>
<clipPath id="clip3_213_2165">
<rect width="79.9041" height="40.9265" fill="white" transform="translate(91.1409 76.9003) rotate(48.6964)"/>
</clipPath>
<clipPath id="clip4_213_2165">
<rect width="79.9041" height="40.9265" fill="white" transform="translate(38.4004 16.8746) rotate(48.6964)"/>
</clipPath>
<clipPath id="clip5_213_2165">
<rect width="79.9041" height="40.9265" fill="white" transform="translate(-14.3403 -43.1512) rotate(48.6964)"/>
</clipPath>
</defs>
</svg>
