<svg width="188" height="124" viewBox="0 0 188 124" fill="none" xmlns="http://www.w3.org/2000/svg">
<mask id="mask0_213_2092" style="mask-type:alpha" maskUnits="userSpaceOnUse" x="0" y="0" width="188" height="124">
<rect width="188" height="124" fill="#1D2125"/>
</mask>
<g mask="url(#mask0_213_2092)">
<path d="M186 54.9536L151.094 62L156.232 53.9694L137 53.0138L166.929 48L161.995 54.7254L186 54.9536Z" fill="#46515C"/>
<path d="M158 21L141.879 40.4355L141.08 33.8605L130 42L144.29 25.8795L144.608 31.6689L158 21Z" fill="#46515C"/>
<path d="M1 70.168L31.8708 68L26.5381 74.8029L43 78.1036L16.6483 79L21.6631 73.3853L1 70.168Z" fill="#46515C"/>
<path d="M16 106L30.7862 89.7571L31.1211 95.5748L41 89L27.959 102.428L27.9913 97.3156L16 106Z" fill="#46515C"/>
<path d="M74.0576 108.709C74.0576 108.709 72.1476 122.683 75.0669 122.234C77.9861 121.785 82.2915 110.374 82.2915 110.374L74.0576 108.709Z" fill="#4299E1"/>
<path d="M126.528 91.1866C126.528 91.1866 136.362 101.444 133.727 102.744C131.093 104.044 120.83 97.2287 120.83 97.2287L126.528 91.1866Z" fill="#4299E1"/>
<path d="M57.2297 40.5788L55.8309 42.2324L36.2259 25.2795C35.7648 24.878 35.7014 24.1852 36.0896 23.7291C36.4777 23.2729 37.1636 23.2244 37.6247 23.6259L57.2297 40.5788Z" fill="#263238"/>
<path opacity="0.3" d="M57.2297 40.5788L55.8309 42.2324L36.2259 25.2795C35.7648 24.878 35.7014 24.1852 36.0896 23.7291C36.4777 23.2729 37.1636 23.2244 37.6247 23.6259L57.2297 40.5788Z" fill="white"/>
<path d="M38.4059 55.0685C38.4059 55.0685 25.1885 43.1971 33.6041 31.5586C41.3582 20.8367 43.5286 19.6823 43.5286 19.6823C43.5286 19.6823 55.1332 8.02425 66.7562 20.1589L38.4059 55.0685Z" fill="#4299E1"/>
<path d="M105.832 27.7768L103.729 27.1102L110.94 2.46204C111.109 1.88061 111.718 1.55976 112.299 1.74286C112.88 1.92596 113.212 2.5472 113.044 3.12863L105.832 27.7768Z" fill="#263238"/>
<path opacity="0.3" d="M105.832 27.7768L103.729 27.1102L110.94 2.46204C111.109 1.88061 111.718 1.55976 112.299 1.74286C112.88 1.92596 113.212 2.5472 113.044 3.12863L105.832 27.7768Z" fill="white"/>
<path d="M84.7327 15.9099C84.7327 15.9099 90.0284 -0.801391 104.115 2.50444C117.096 5.55113 119.046 7.11145 119.046 7.11145C119.046 7.11145 134.481 13.3497 128.288 28.6948L84.7327 15.9099Z" fill="#4299E1"/>
<path d="M77.0773 13.0912L70.5766 15.1361L71.418 17.7094L73.1466 17.1668L75.5248 24.4248L78.5683 23.4652L76.1901 16.2071L77.9187 15.6645L77.0773 13.0912Z" fill="#263238"/>
<path opacity="0.3" d="M77.0773 13.0912L70.5766 15.1361L71.418 17.7094L73.1466 17.1668L75.5248 24.4248L78.5683 23.4652L76.1901 16.2071L77.9187 15.6645L77.0773 13.0912Z" fill="white"/>
<path d="M133.168 81.7343C140.937 58.2123 127.867 32.547 103.975 24.4091C80.084 16.2712 54.4186 28.7425 46.6501 52.2644C38.8816 75.7864 51.9517 101.452 75.8431 109.59C99.7344 117.728 125.4 105.256 133.168 81.7343Z" fill="#4299E1"/>
<path opacity="0.8" d="M128.295 80.0702C135.163 59.2743 123.608 36.5834 102.485 29.3887C81.3627 22.1939 58.6718 33.2199 51.8036 54.0158C44.9354 74.8116 56.4908 97.5025 77.6132 104.697C98.7357 111.892 121.427 100.866 128.295 80.0702Z" fill="white"/>
<path d="M90.1097 66.0709L78.42 76.7963L71.6837 88.6169L81.9109 78.5473L90.1097 66.0709Z" fill="#263238"/>
<path d="M90.0586 67.107L91.6402 54.1977L90.3121 42.9853L88.0017 54.4804L90.0586 67.107Z" fill="#263238"/>
<path d="M76.9398 32.9723L78.4686 37.6289L77.8217 37.8322L76.4826 33.7558L75.4505 34.0788L75.2608 33.4986L76.9398 32.9723Z" fill="#263238"/>
<path d="M82.5519 35.695L82.7425 36.2772L79.4352 37.3128L79.2851 36.86L80.5547 34.4389C80.8829 33.8045 80.8799 33.4825 80.7821 33.1906C80.6219 32.7096 80.1943 32.522 79.5475 32.7244C79.0559 32.8794 78.7064 33.1635 78.5385 33.5987L77.9627 33.343C78.1704 32.7846 78.6969 32.3345 79.4139 32.11C80.3726 31.8079 81.1536 32.1159 81.4184 32.9187C81.5685 33.3715 81.5711 33.8223 81.1445 34.6254L80.1886 36.4399L82.5519 35.695Z" fill="#263238"/>
<path d="M97.4895 31.494L99.017 36.1502L98.3698 36.3538L97.0318 32.2777L95.9992 32.6011L95.8097 32.021L97.4895 31.494Z" fill="#263238"/>
<path d="M115.22 43.8013L115.411 44.3835L112.103 45.4192L111.953 44.9664L113.223 42.5453C113.551 41.9109 113.548 41.5889 113.451 41.297C113.29 40.816 112.863 40.6284 112.216 40.8308C111.724 40.9859 111.375 41.27 111.207 41.7052L110.631 41.4496C110.839 40.8911 111.365 40.441 112.082 40.2165C113.041 39.9144 113.822 40.2223 114.087 41.0251C114.237 41.4779 114.24 41.9287 113.813 42.7318L112.857 44.5463L115.22 43.8013Z" fill="#263238"/>
<path d="M123.323 57.0214C123.581 57.8112 123.219 58.6288 122.052 58.9959C121.395 59.2031 120.68 59.19 120.177 58.9567L120.307 58.3325C120.712 58.5314 121.292 58.5774 121.858 58.3985C122.547 58.1834 122.837 57.7382 122.671 57.2304C122.509 56.7376 122.056 56.5249 121.266 56.7733L120.896 56.8888L120.743 56.4208L121.424 54.6167L119.208 55.3095L119.017 54.7271L122.055 53.7747L122.205 54.2277L121.5 56.1142C122.447 55.9175 123.087 56.2997 123.323 57.0214Z" fill="#263238"/>
<path d="M125.869 74.5024L124.992 74.7762L125.371 75.9269L124.733 76.1246L124.355 74.974L121.795 75.7732L121.642 75.305L122.992 71.5056L123.703 71.284L122.417 74.9438L124.187 74.3882L123.852 73.3737L124.472 73.1806L124.806 74.1951L125.683 73.9213L125.869 74.5024Z" fill="#263238"/>
<path d="M116.965 89.3088C117.231 90.1151 116.877 90.941 115.702 91.308C115.052 91.512 114.337 91.4989 113.827 91.2688L113.954 90.6463C114.359 90.8451 114.939 90.8911 115.498 90.7155C116.194 90.4972 116.482 90.0486 116.315 89.5376C116.139 89.0099 115.705 88.7843 114.639 89.118L113.595 89.4455L113.034 86.9256L115.632 86.1109L115.823 86.6932L113.777 87.3355L114.074 88.6577L114.588 88.4963C115.963 88.0677 116.695 88.4792 116.965 89.3088Z" fill="#263238"/>
<path d="M102.633 99.5585C102.93 100.458 102.4 101.258 101.487 101.546C100.25 101.935 99.2772 101.311 98.7863 99.8224C98.2616 98.2262 98.8688 97.0933 100.156 96.6916C100.589 96.5572 101.031 96.5138 101.391 96.6063L101.313 97.2047C101.026 97.1182 100.687 97.1564 100.36 97.2593C99.4254 97.5536 99.023 98.3325 99.406 99.5006C99.4245 99.5537 99.4398 99.6084 99.4682 99.665C99.5997 99.1812 100.014 98.8153 100.588 98.6366C101.506 98.3504 102.352 98.6973 102.633 99.5585ZM102.006 99.7843C101.826 99.2384 101.301 99.0115 100.657 99.2124C100.031 99.4085 99.7281 99.9395 99.8968 100.454C100.057 100.935 100.574 101.236 101.285 101.015C101.885 100.823 102.187 100.338 102.006 99.7843Z" fill="#263238"/>
<path d="M84.578 96.0947L84.7281 96.5476L84.2538 101.348L83.5578 101.567L84.0334 96.9063L81.9308 97.5642L82.2041 98.4003L81.5719 98.5996L81.1064 97.1862L84.578 96.0947Z" fill="#263238"/>
<path d="M70.7366 92.026C71.0151 92.8723 70.4812 93.6249 69.3552 93.976C68.2373 94.3273 67.3591 94.0211 67.0823 93.1698C66.9068 92.6338 67.0678 92.152 67.52 91.7882C67.0342 91.7204 66.6956 91.4431 66.5454 90.9818C66.2872 90.2002 66.7921 89.5034 67.7841 89.1934C68.7827 88.8801 69.6147 89.1592 69.8712 89.9375C70.0214 90.3988 69.9057 90.8168 69.5515 91.1489C70.1436 91.1935 70.5611 91.49 70.7366 92.026ZM70.0729 92.2117C69.9041 91.6973 69.3501 91.5178 68.6211 91.744C67.8889 91.9717 67.5605 92.4281 67.7293 92.9425C67.9047 93.4703 68.4441 93.6611 69.1763 93.4334C69.9052 93.2072 70.2434 92.7378 70.0729 92.2117ZM67.201 90.8042C67.3512 91.2655 67.8232 91.4356 68.4525 91.2378C69.0899 91.0401 69.3843 90.6296 69.2341 90.1682C69.0805 89.7003 68.5774 89.5413 67.958 89.7343C67.3403 89.9306 67.0474 90.3362 67.201 90.8042Z" fill="#263238"/>
<path d="M60.0418 75.7969C60.5665 77.3931 59.9593 78.526 58.6717 78.9277C58.2387 79.0621 57.7966 79.1055 57.4368 79.013L57.5148 78.4145C57.8089 78.4979 58.1413 78.4628 58.4746 78.3568C59.4092 78.0625 59.8051 77.2867 59.4204 76.1153L59.3647 75.9477C59.2284 76.4381 58.8106 76.7973 58.2387 76.9793C57.3237 77.264 56.4863 76.9171 56.2012 76.0576C55.9043 75.1583 56.4261 74.3578 57.3412 74.0732C58.5798 73.6873 59.5509 74.3086 60.0418 75.7969ZM58.9428 75.164C58.7825 74.6828 58.2651 74.3816 57.5478 74.6062C56.9497 74.7929 56.6511 75.276 56.8333 75.8335C57.0138 76.3794 57.5322 76.6095 58.176 76.4086C58.8067 76.2059 59.1115 75.6783 58.9428 75.164Z" fill="#263238"/>
<path d="M55.8773 58.3447L57.4061 63.0013L56.7592 63.2046L55.4201 59.1282L54.388 59.4511L54.1983 58.8709L55.8773 58.3447Z" fill="#263238"/>
<path d="M57.6823 60.3184C57.1828 58.7966 57.6984 57.6754 58.7787 57.3385C59.8509 57.0015 60.9386 57.6195 61.4381 59.1413C61.9377 60.6632 61.4221 61.7844 60.3483 62.1181C59.2729 62.4567 58.1836 61.8436 57.6823 60.3184ZM60.7811 59.3487C60.3879 58.1521 59.6887 57.7079 58.9745 57.931C58.2504 58.1588 57.9494 58.913 58.3426 60.1095C58.7358 61.3061 59.435 61.7502 60.1558 61.524C60.8717 61.3043 61.1743 60.5452 60.7811 59.3487Z" fill="#263238"/>
<path d="M63.3319 42.4728L64.8607 47.1294L64.2138 47.3327L62.8747 43.2563L61.8426 43.5793L61.6529 42.9991L63.3319 42.4728Z" fill="#263238"/>
<path d="M65.787 41.6833L67.3157 46.3399L66.6689 46.5432L65.3298 42.4668L64.2976 42.7898L64.108 42.2096L65.787 41.6833Z" fill="#263238"/>
<path d="M60.6387 62.3359C67.972 63.3115 75.2853 64.4427 82.611 65.4845C84.9255 65.814 87.2415 66.1303 89.5575 66.4383C90.2657 66.5307 90.3232 65.4238 89.6182 65.3298C82.2849 64.3542 74.9716 63.223 67.6459 62.1812C65.3314 61.8517 63.0154 61.5354 60.6995 61.2274C59.9945 61.1334 59.937 62.2403 60.6387 62.3359Z" fill="#D7504D"/>
<path d="M119.266 81.7985C119.377 82.1341 119.198 82.4923 118.864 82.5986C118.534 82.7033 118.174 82.5148 118.061 82.1759C117.948 81.8369 118.128 81.4821 118.462 81.3758C118.793 81.2711 119.153 81.4595 119.266 81.7985Z" fill="#263238"/>
<path d="M107.969 94.8449C108.081 95.1805 107.902 95.5387 107.568 95.645C107.237 95.7497 106.878 95.5612 106.765 95.2222C106.653 94.8866 106.832 94.5285 107.166 94.4221C107.5 94.3158 107.861 94.5076 107.969 94.8449Z" fill="#263238"/>
<path d="M122.646 65.6617C122.757 65.9974 122.578 66.3555 122.244 66.4618C121.913 66.5665 121.554 66.3781 121.441 66.0391C121.329 65.7035 121.508 65.3453 121.842 65.239C122.176 65.1327 122.536 65.3211 122.646 65.6617Z" fill="#263238"/>
<path d="M116.48 49.2508C116.66 48.9529 116.56 48.5608 116.256 48.375C115.953 48.1892 115.561 48.2801 115.381 48.578C115.201 48.876 115.301 49.2681 115.605 49.4539C115.908 49.6397 116.3 49.5488 116.48 49.2508Z" fill="#263238"/>
<path d="M104.142 36.8217C104.254 37.1573 104.075 37.5155 103.741 37.6218C103.41 37.7265 103.05 37.538 102.937 37.1991C102.826 36.8634 103.005 36.5053 103.339 36.399C103.674 36.296 104.034 36.4844 104.142 36.8217Z" fill="#263238"/>
<path d="M88.919 33.3169C89.0305 33.6525 88.8515 34.0107 88.5176 34.117C88.1869 34.2217 87.8273 34.0332 87.7142 33.6942C87.6028 33.3586 87.7818 33.0004 88.1157 32.8941C88.4513 32.7912 88.8109 32.9796 88.919 33.3169Z" fill="#263238"/>
<path d="M73.6366 96.4489C73.748 96.7846 74.1093 96.9764 74.4399 96.8717C74.7706 96.767 74.9528 96.4072 74.8414 96.0716C74.73 95.7359 74.3704 95.5475 74.0381 95.6488C73.7074 95.7535 73.5284 96.1117 73.6366 96.4489Z" fill="#263238"/>
<path d="M90.4164 100.476C90.5278 100.812 90.8891 101.003 91.2197 100.899C91.5504 100.794 91.7326 100.434 91.6212 100.099C91.5098 99.7629 91.1502 99.5745 90.8179 99.6758C90.4872 99.7805 90.3066 100.135 90.4164 100.476Z" fill="#263238"/>
<path d="M61.4881 85.3019C61.5996 85.6375 61.9608 85.8293 62.2915 85.7246C62.6221 85.6199 62.8044 85.2602 62.693 84.9245C62.5815 84.5889 62.2203 84.3971 61.8896 84.5018C61.559 84.6065 61.38 84.9647 61.4881 85.3019Z" fill="#263238"/>
<path d="M57.763 68.0894C57.9246 67.7811 57.8009 67.3953 57.4867 67.2278C57.1725 67.0603 56.7868 67.1745 56.6251 67.4828C56.4635 67.7911 56.5872 68.1769 56.9014 68.3444C57.2157 68.5119 57.6014 68.3977 57.763 68.0894Z" fill="#263238"/>
<path d="M59.7294 51.0806C59.8408 51.4162 60.202 51.608 60.5327 51.5033C60.8634 51.3986 61.0456 51.0388 60.9342 50.7032C60.8228 50.3676 60.4615 50.1758 60.1308 50.2805C59.7969 50.3868 59.6179 50.745 59.7294 51.0806Z" fill="#263238"/>
<path d="M70.0633 39.3654C70.1748 39.701 70.536 39.8928 70.8667 39.7881C71.1973 39.6834 71.3796 39.3236 71.2682 38.988C71.1567 38.6524 70.7971 38.4639 70.4648 38.5653C70.1309 38.6716 69.9519 39.0297 70.0633 39.3654Z" fill="#263238"/>
<path d="M91.8673 64.8415C92.6005 66.0434 92.2371 67.5997 91.0579 68.3184C89.877 69.0338 88.3233 68.639 87.5869 67.4387C86.8538 66.2367 87.2171 64.6804 88.3964 63.9617C89.5806 63.2447 91.1342 63.6395 91.8673 64.8415Z" fill="#263238"/>
</g>
</svg>
