<svg width="32" height="172" viewBox="0 0 32 172" fill="none" xmlns="http://www.w3.org/2000/svg">
<path fill-rule="evenodd" clip-rule="evenodd" d="M32 0H16.9926C16.9975 0.166062 17 0.33274 17 0.5C17 9.6127 9.6127 17 0.5 17C0.332741 17 0.166061 16.9975 0 16.9926V20C3.31371 20 6 22.6863 6 26C6 29.3137 3.31371 32 0 32V37C3.31371 37 6 39.6863 6 43C6 46.3137 3.31371 49 0 49V54C3.31371 54 6 56.6863 6 60C6 63.3137 3.31371 66 0 66V71C3.31371 71 6 73.6863 6 77C6 80.3137 3.31371 83 0 83V88C3.31371 88 6 90.6863 6 94C6 97.3137 3.31371 100 0 100V105C3.31371 105 6 107.686 6 111C6 114.314 3.31371 117 0 117V122C3.31371 122 6 124.686 6 128C6 131.314 3.31371 134 0 134V139C3.31371 139 6 141.686 6 145C6 148.314 3.31371 151 0 151V155.007C0.166061 155.002 0.332741 155 0.5 155C9.6127 155 17 162.387 17 171.5C17 171.667 16.9975 171.834 16.9926 172H32V0Z" fill="#1D2125"/>
</svg>
